<svg width="133" height="54" viewBox="0 0 133 54" fill="none" xmlns="http://www.w3.org/2000/svg">
<g clip-path="url(#clip0_2895_154)">
<path d="M61.6279 17.93H55.0283V33.7533H61.6279V17.93Z" fill="#EE3124"/>
<path d="M61.6279 15.9011V9.324H45.528V9.73953C45.528 9.89644 45.5035 10.0711 45.4553 10.2634L42.6632 26.9594C42.5663 27.5139 42.2761 27.7905 41.793 27.7905C41.5755 27.7905 41.394 27.7361 41.249 27.6279C41.1039 27.5193 40.9951 27.3208 40.9227 27.0316L37.2601 13.7328C36.8006 12.0704 36.0636 10.83 35.0482 10.0105C34.0329 9.19173 32.546 8.78186 30.588 8.78186C28.6056 8.78186 27.0823 9.19739 26.0191 10.0287C24.9548 10.8598 24.1696 12.1551 23.6619 13.9136L19.9268 27.0316C19.8544 27.3208 19.7457 27.5193 19.6006 27.6279C19.4555 27.7361 19.2741 27.7905 19.0566 27.7905C18.5489 27.7905 18.2588 27.5139 18.1863 26.9594L15.6117 10.2634C15.5875 10.0952 15.5692 9.92649 15.5573 9.75751C15.545 9.58928 15.5393 9.44469 15.5393 9.324H8.61316C8.61316 9.63731 8.64949 10.023 8.72191 10.4804L11.7679 28.8021C11.8887 29.5736 12.1181 30.2965 12.457 30.9707C12.7953 31.6453 13.2548 32.2237 13.8349 32.7055C14.4152 33.1875 15.1223 33.5671 15.9562 33.8437C16.7902 34.1203 17.7632 34.2592 18.8754 34.2592C20.761 34.2592 22.284 33.8195 23.4444 32.9402C24.6048 32.0611 25.4506 30.6812 25.9827 28.8021L29.7902 15.323C29.9108 14.8412 30.1765 14.6001 30.588 14.6001C30.9988 14.6001 31.2645 14.8412 31.3856 15.323L34.9032 28.8021C35.8698 32.4404 38.1785 34.2592 41.8293 34.2592C44.0288 34.2592 45.703 33.7589 46.8515 32.7596C47.9994 31.7601 48.7188 30.4529 49.009 28.8386L51.3091 15.9011H61.6279Z" fill="#EE3124"/>
<path d="M124.255 21.5385C124.255 19.7559 123.904 18.0935 123.203 16.5514C122.502 15.0099 121.535 13.6729 120.303 12.5401C119.215 11.5283 117.927 10.7393 116.441 10.173C114.954 9.60724 113.219 9.32373 111.237 9.32373H77.2927C75.3103 9.32373 73.576 9.60724 72.0891 10.173C70.6024 10.7393 69.3152 11.5283 68.2272 12.5401C66.9944 13.6729 66.0273 15.0099 65.3263 16.5514C64.6249 18.0935 64.2747 19.7559 64.2747 21.5385C64.2747 23.1529 64.5525 24.6588 65.1088 26.0559C65.6647 27.4535 66.438 28.694 67.4296 29.778C68.5656 31.0066 69.9435 31.9769 71.5636 32.6872C73.1827 33.3981 75.0928 33.7533 77.2927 33.7533H89.0053C90.0446 33.7533 90.5647 33.2355 90.5647 32.1993V20.3821H84.0374V26.9232C84.0374 27.2607 83.88 27.4291 83.5661 27.4291H77.2927C76.1323 27.4291 75.1533 27.2427 74.3555 26.869C73.5577 26.4956 72.8926 26.0197 72.3612 25.4414C71.8773 24.9354 71.5028 24.3517 71.2371 23.6888C70.9707 23.0265 70.8382 22.3218 70.8382 21.5747C70.8382 20.756 71.0013 19.9845 71.3276 19.2618C71.6541 18.5391 72.0948 17.9127 72.6514 17.3827C73.1827 16.9009 73.8115 16.5154 74.5369 16.2262C75.2621 15.937 76.1805 15.7925 77.2927 15.7925H90.5283V15.789H94.514C94.3791 16.04 94.2409 16.2885 94.1213 16.5514C93.4198 18.0935 93.0699 19.7559 93.0699 21.5385C93.0699 23.1529 93.3474 24.6588 93.9038 26.0559C94.4596 27.4535 95.233 28.694 96.2246 29.778C97.3608 31.0066 98.7387 31.9769 100.359 32.6872C101.978 33.3981 103.888 33.7533 106.088 33.7533H111.237C113.437 33.7533 115.346 33.3981 116.966 32.6872C118.586 31.9769 119.964 31.0066 121.1 29.778C122.091 28.694 122.865 27.4535 123.421 26.0559C123.977 24.6588 124.255 23.1529 124.255 21.5385ZM117.692 21.5747C117.692 22.3218 117.559 23.0265 117.293 23.6888C117.026 24.3517 116.652 24.9354 116.169 25.4414C115.637 26.0197 114.972 26.4776 114.174 26.8148C113.376 27.1523 112.397 27.3208 111.237 27.3208H106.088C104.928 27.3208 103.948 27.1523 103.151 26.8148C102.353 26.4776 101.688 26.0197 101.156 25.4414C100.672 24.9354 100.298 24.3517 100.032 23.6888C99.7659 23.0265 99.6332 22.3218 99.6332 21.5747C99.6332 20.756 99.7963 19.9845 100.123 19.2618C100.449 18.5391 100.89 17.9127 101.446 17.3827C101.978 16.9009 102.607 16.5154 103.332 16.2262C104.057 15.937 104.975 15.7925 106.088 15.7925H111.237C112.349 15.7925 113.268 15.937 113.993 16.2262C114.718 16.5154 115.347 16.9009 115.879 17.3827C116.434 17.9127 116.876 18.5391 117.202 19.2618C117.528 19.9845 117.692 20.756 117.692 21.5747Z" fill="#231F20"/>
</g>
<path d="M77.4067 45.2374C78.1843 45.2374 78.8593 45.1117 79.4319 44.8608C80.0043 44.6095 80.4912 44.2669 80.8931 43.8324C81.2433 43.4491 81.5167 43.0104 81.7134 42.5166C81.9099 42.0227 82.0083 41.4904 82.0083 40.92C82.0083 40.2896 81.8842 39.7019 81.6366 39.1571C81.3887 38.6122 81.0471 38.1398 80.6111 37.7393C80.2265 37.3814 79.7715 37.1028 79.2461 36.9023C78.7206 36.7025 78.1072 36.602 77.4067 36.602H75.5866C74.8859 36.602 74.2727 36.7025 73.7473 36.9023C73.2218 37.1028 72.767 37.3814 72.3822 37.7393C71.9465 38.1398 71.6044 38.6122 71.3568 39.1571C71.1091 39.7019 70.9853 40.2896 70.9853 40.92C70.9853 41.4904 71.0832 42.0227 71.2799 42.5166C71.4764 43.0104 71.7497 43.4491 72.1002 43.8324C72.5018 44.2669 72.9887 44.6095 73.5614 44.8608C74.1338 45.1117 74.8088 45.2374 75.5866 45.2374H77.4067ZM77.4067 38.8888C77.7997 38.8888 78.1245 38.9401 78.3808 39.0423C78.6373 39.1445 78.8593 39.2805 79.0473 39.4509C79.2441 39.6384 79.3998 39.8596 79.5152 40.115C79.6306 40.3704 79.6882 40.6433 79.6882 40.9325C79.6882 41.1968 79.6413 41.4456 79.5473 41.6801C79.4532 41.9143 79.3207 42.1207 79.1499 42.2993C78.9618 42.5038 78.727 42.6658 78.445 42.7848C78.1633 42.904 77.817 42.9639 77.4067 42.9639H75.5866C75.1766 42.9639 74.8303 42.904 74.5486 42.7848C74.2663 42.6658 74.0313 42.5038 73.8434 42.2993C73.6726 42.1207 73.5399 41.9143 73.4462 41.6801C73.3518 41.4456 73.3051 41.1968 73.3051 40.9325C73.3051 40.6433 73.3627 40.3704 73.4781 40.115C73.5935 39.8596 73.7493 39.6384 73.946 39.4509C74.1338 39.2805 74.356 39.1445 74.6123 39.0423C74.8689 38.9401 75.1934 38.8888 75.5866 38.8888H77.4067ZM82.098 36.602V38.8888H85.9048V45.2374H88.2377V38.8888H92.0316V36.602H82.098ZM98.5304 45.2374C99.3077 45.2374 99.9829 45.1117 100.555 44.8608C101.128 44.6095 101.615 44.2669 102.017 43.8324C102.367 43.4491 102.64 43.0104 102.837 42.5166C103.034 42.0227 103.132 41.4904 103.132 40.92C103.132 40.2896 103.008 39.7019 102.76 39.1571C102.512 38.6122 102.171 38.1398 101.735 37.7393C101.35 37.3814 100.895 37.1028 100.37 36.9023C99.844 36.7025 99.2308 36.602 98.5304 36.602H96.7103C96.0096 36.602 95.3964 36.7025 94.8707 36.9023C94.3452 37.1028 93.8902 37.3814 93.5056 37.7393C93.0699 38.1398 92.7281 38.6122 92.4804 39.1571C92.2323 39.7019 92.1087 40.2896 92.1087 40.92C92.1087 41.4904 92.2068 42.0227 92.4033 42.5166C92.5998 43.0104 92.8731 43.4491 93.2236 43.8324C93.6252 44.2669 94.1124 44.6095 94.6851 44.8608C95.2575 45.1117 95.9325 45.2374 96.7103 45.2374H98.5304ZM98.5304 38.8888C98.9233 38.8888 99.2481 38.9401 99.5044 39.0423C99.7607 39.1445 99.9829 39.2805 100.171 39.4509C100.367 39.6384 100.523 39.8596 100.639 40.115C100.754 40.3704 100.812 40.6433 100.812 40.9325C100.812 41.1968 100.765 41.4456 100.671 41.6801C100.577 41.9143 100.444 42.1207 100.274 42.2993C100.085 42.5038 99.8507 42.6658 99.5684 42.7848C99.2864 42.904 98.9404 42.9639 98.5304 42.9639H96.7103C96.3 42.9639 95.954 42.904 95.672 42.7848C95.39 42.6658 95.1552 42.5038 94.9668 42.2993C94.7958 42.1207 94.6636 41.9143 94.5696 41.6801C94.4757 41.4456 94.4285 41.1968 94.4285 40.9325C94.4285 40.6433 94.4863 40.3704 94.6015 40.115C94.7169 39.8596 94.8729 39.6384 95.0694 39.4509C95.2575 39.2805 95.4797 39.1445 95.736 39.0423C95.9923 38.9401 96.3171 38.8888 96.7103 38.8888H98.5304ZM106.439 42.172H110.476C110.818 42.172 111.062 42.2316 111.207 42.3506C111.352 42.47 111.425 42.6658 111.425 42.938V44.6625C111.425 44.8588 111.437 45.0502 111.463 45.2374H113.809C113.792 45.1184 113.781 44.9989 113.777 44.88C113.772 44.7605 113.77 44.6073 113.77 44.4201V42.6956C113.77 42.2018 113.704 41.8227 113.572 41.5584C113.439 41.2946 113.228 41.0773 112.937 40.9069C113.245 40.6857 113.458 40.4197 113.578 40.1088C113.698 39.7977 113.758 39.4679 113.758 39.1187C113.758 38.7952 113.696 38.4866 113.572 38.1925C113.448 37.8987 113.279 37.6413 113.066 37.4201C112.826 37.173 112.531 36.9747 112.181 36.8259C111.83 36.6769 111.386 36.602 110.848 36.602H104.695C104.311 36.602 104.119 36.7811 104.119 37.1388V45.2374H106.439V42.172ZM106.439 40.2044V38.9526C106.439 38.825 106.503 38.761 106.631 38.761H110.541C110.822 38.761 111.032 38.8379 111.169 38.9911C111.297 39.1187 111.361 39.2805 111.361 39.4763C111.361 39.6384 111.305 39.7874 111.194 39.9236C111.126 40.0086 111.04 40.0768 110.938 40.1281C110.835 40.179 110.703 40.2044 110.541 40.2044H106.439ZM123.845 36.602H117.487C116.906 36.602 116.441 36.6727 116.09 36.8131C115.74 36.9535 115.449 37.1432 115.219 37.3814C114.988 37.6198 114.806 37.8925 114.674 38.1992C114.541 38.5058 114.475 38.8334 114.475 39.1824C114.475 39.5401 114.539 39.8707 114.668 40.1724C114.796 40.4749 114.975 40.7456 115.206 40.9837C115.437 41.2222 115.729 41.4118 116.084 41.552C116.438 41.6926 116.906 41.7631 117.487 41.7631H121.012C121.183 41.7631 121.313 41.7779 121.403 41.8077C121.493 41.8375 121.568 41.8865 121.628 41.9547C121.747 42.0737 121.807 42.2271 121.807 42.4143C121.807 42.5676 121.76 42.6998 121.666 42.8104C121.606 42.8789 121.527 42.9319 121.429 42.9703C121.33 43.0082 121.192 43.0274 121.012 43.0274H114.706V45.2374H121.422C121.935 45.2374 122.369 45.1568 122.724 44.995C123.078 44.8329 123.375 44.6162 123.614 44.3432C123.811 44.1134 123.967 43.8538 124.082 43.5639C124.198 43.2745 124.255 42.9725 124.255 42.657C124.255 42.3168 124.189 41.9927 124.057 41.6862C123.924 41.3798 123.743 41.1072 123.512 40.869C123.281 40.6305 122.997 40.4406 122.659 40.3002C122.322 40.1601 121.91 40.0896 121.422 40.0896H117.616C117.479 40.0896 117.374 40.079 117.302 40.0579C117.229 40.0367 117.167 40.0046 117.116 39.9618C116.97 39.8428 116.898 39.6896 116.898 39.5022C116.898 39.3231 116.958 39.1743 117.077 39.0549C117.129 39.0036 117.195 38.9635 117.276 38.9334C117.357 38.9036 117.47 38.8888 117.616 38.8888H123.845V36.602Z" fill="#231F20"/>
<path d="M62.4185 42.9089L61.1753 38.144C60.8335 36.8582 60.0174 36.2151 58.7269 36.2151C57.9496 36.2151 57.3577 36.3922 56.9518 36.7454C56.546 37.0989 56.2917 37.561 56.1891 38.1314L55.0356 44.6203C55.0186 44.7142 55.0079 44.7888 55.0035 44.844C54.9993 44.8994 54.9971 44.9612 54.9971 45.0292H57.4197V44.8824C57.4197 44.827 57.4281 44.7654 57.4452 44.6972L58.4321 38.7957C58.4664 38.5997 58.569 38.5016 58.7398 38.5016C58.8167 38.5016 58.8809 38.5211 58.9321 38.5595C58.9832 38.5977 59.0218 38.6676 59.0475 38.7699L60.3421 43.4708C60.5045 44.0585 60.765 44.4969 61.1239 44.7866C61.4828 45.076 62.0082 45.2211 62.7005 45.2211C63.4012 45.2211 63.9395 45.0741 64.3154 44.7804C64.6916 44.4863 64.9692 44.0287 65.1486 43.407L66.4689 38.7699C66.4946 38.6676 66.5329 38.5977 66.5844 38.5595C66.6355 38.5211 66.6995 38.5016 66.7766 38.5016C66.9561 38.5016 67.0584 38.5997 67.0841 38.7957L67.9941 44.6972C68.0028 44.7568 68.0092 44.8162 68.0134 44.8758C68.0179 44.9356 68.0199 44.9866 68.0199 45.0292H70.468C70.468 44.9184 70.4551 44.7822 70.4296 44.6203L69.3528 38.144C69.3103 37.8716 69.2292 37.6161 69.1093 37.3779C68.9897 37.139 68.8273 36.9348 68.6222 36.7646C68.4173 36.5939 68.1672 36.4599 67.8725 36.3624C67.5777 36.2644 67.2336 36.2151 66.8407 36.2151C66.1741 36.2151 65.6358 36.3708 65.2255 36.6816C64.8154 36.9922 64.5164 37.4799 64.3283 38.144L62.9825 42.9089C62.9398 43.0789 62.8458 43.1644 62.7005 43.1644C62.5552 43.1644 62.4613 43.0789 62.4185 42.9089Z" fill="#231F20"/>
<defs>
<clipPath id="clip0_2895_154">
<rect width="115.642" height="25.4774" fill="white" transform="translate(8.61316 8.78186)"/>
</clipPath>
</defs>
</svg>
