<svg width="67" height="17" viewBox="0 0 67 17" fill="none" xmlns="http://www.w3.org/2000/svg">
<g clip-path="url(#clip0_6829_16248)">
<path d="M25.2571 11.9686C24.8882 11.9736 24.5223 11.901 24.1832 11.7557C23.844 11.6103 23.5392 11.3954 23.2883 11.1249C23.0233 10.857 22.8145 10.5389 22.674 10.1894C22.5335 9.83975 22.4642 9.46563 22.4701 9.0889C22.4624 8.71269 22.5305 8.33879 22.6706 7.98953C22.8106 7.64027 23.0196 7.32282 23.2851 7.05614C23.5373 6.78794 23.8426 6.57524 24.1816 6.43162C24.5206 6.28799 24.8858 6.21658 25.2539 6.22194C25.6302 6.20719 26.004 6.28903 26.3397 6.45967C26.6754 6.63031 26.9618 6.88407 27.1716 7.19677V6.31463H28.2232V11.8855H27.1812V11.0034C26.9708 11.3006 26.691 11.542 26.3662 11.7066C26.0229 11.8817 25.6425 11.9716 25.2571 11.9686ZM25.353 11.0098C25.6029 11.0126 25.8507 10.9635 26.0807 10.8655C26.3107 10.7676 26.5178 10.623 26.689 10.4409C27.0462 10.0816 27.2467 9.59553 27.2467 9.0889C27.2467 8.58227 27.0462 8.09623 26.689 7.73693C26.5157 7.55603 26.3075 7.41209 26.0771 7.31375C25.8467 7.21541 25.5987 7.16472 25.3482 7.16472C25.0977 7.16472 24.8497 7.21541 24.6193 7.31375C24.3889 7.41209 24.1808 7.55603 24.0074 7.73693C23.6548 8.10118 23.4576 8.5883 23.4576 9.09529C23.4576 9.60229 23.6548 10.0894 24.0074 10.4537C24.1801 10.6341 24.3881 10.777 24.6186 10.8732C24.849 10.9695 25.0969 11.0171 25.3466 11.013L25.353 11.0098Z" fill="white"/>
<path d="M29.2012 11.8855V6.31463H30.2527V7.12326C30.4156 6.84082 30.652 6.60783 30.9368 6.44911C31.2216 6.29039 31.5441 6.21188 31.87 6.22194C32.2473 6.2157 32.6182 6.32093 32.936 6.52447C33.2538 6.72801 33.5045 7.0208 33.6566 7.36617C33.8382 7.01611 34.1153 6.72466 34.4557 6.52558C34.7925 6.32371 35.1785 6.21865 35.5711 6.22194C35.8447 6.21745 36.1162 6.26901 36.3691 6.37345C36.622 6.47789 36.8507 6.633 37.0414 6.82921C37.2509 7.05013 37.4131 7.31148 37.518 7.59726C37.623 7.88304 37.6685 8.18723 37.6519 8.49122V11.8855H36.6003V8.75331C36.6278 8.34158 36.5151 7.93268 36.2807 7.5931C36.1743 7.45639 36.0366 7.34728 35.8791 7.27496C35.7217 7.20265 35.5492 7.16926 35.3762 7.1776C35.1843 7.16717 34.9927 7.20193 34.8167 7.2791C34.6407 7.35626 34.4853 7.47367 34.363 7.62186C34.1177 7.94008 33.982 8.32918 33.9763 8.73093V11.8855H32.9279V8.75331C32.9544 8.34268 32.8418 7.93511 32.6083 7.59629C32.5025 7.4603 32.3659 7.35142 32.2097 7.27862C32.0536 7.20582 31.8824 7.17119 31.7102 7.1776C31.5064 7.16573 31.3029 7.20446 31.1178 7.29034C30.9326 7.37622 30.7716 7.50659 30.6491 7.66981C30.3966 8.02092 30.2673 8.44571 30.2815 8.87796V11.8855H29.2012Z" fill="white"/>
<path d="M41.2667 11.9686C40.8885 11.9756 40.513 11.9042 40.1637 11.759C39.8144 11.6138 39.499 11.3979 39.2371 11.1249C38.9693 10.8587 38.7579 10.5411 38.6156 10.1913C38.4734 9.84145 38.4032 9.4665 38.4093 9.0889C38.4072 8.71217 38.4796 8.33874 38.6222 7.99004C38.7648 7.64134 38.9749 7.32425 39.2404 7.05697C39.5059 6.78969 39.8216 6.57748 40.1693 6.43254C40.517 6.2876 40.89 6.21277 41.2667 6.21235C41.9478 6.20449 42.6066 6.45455 43.1109 6.91231C43.6299 7.35309 43.9708 7.96773 44.0697 8.64144C44.1305 8.91511 44.1305 9.19877 44.0697 9.47244H39.4481C39.4932 9.91351 39.7088 10.3195 40.049 10.6039C40.3911 10.8835 40.8217 11.032 41.2635 11.0226C41.5872 11.0234 41.907 10.9525 42.2 10.8148C42.484 10.6818 42.7326 10.4836 42.9255 10.2363L43.8588 10.476C43.6253 10.938 43.2547 11.3165 42.7977 11.5595C42.3323 11.8285 41.8042 11.9696 41.2667 11.9686ZM39.4481 8.65742H43.0438C42.9776 8.24027 42.7645 7.86052 42.4429 7.58671C42.1156 7.29947 41.6925 7.14549 41.2571 7.15522C40.814 7.14598 40.3833 7.30208 40.049 7.5931C39.7239 7.86133 39.5098 8.24053 39.4481 8.65742Z" fill="white"/>
<path d="M44.8624 11.8855V6.31463H45.9139V7.32462C46.0739 6.94492 46.3672 6.63684 46.7385 6.45846C47.1692 6.2569 47.6535 6.19973 48.1193 6.29545V7.40772C47.863 7.31919 47.5892 7.29302 47.3208 7.33137C47.0523 7.36972 46.7968 7.47149 46.5755 7.62826C46.3534 7.79396 46.1765 8.01276 46.0609 8.26461C45.9453 8.51645 45.8948 8.79328 45.9139 9.06973V11.8855H44.8624Z" fill="white"/>
<path d="M50.0178 5.31423C49.9524 5.37916 49.8744 5.43019 49.7887 5.46424C49.7031 5.4983 49.6114 5.51468 49.5192 5.51239C49.427 5.51524 49.3351 5.49912 49.2494 5.46503C49.1636 5.43095 49.0857 5.37962 49.0206 5.31423C48.9534 5.25065 48.9002 5.17375 48.8645 5.08845C48.8287 5.00314 48.8111 4.91131 48.8129 4.81883C48.8119 4.72503 48.8298 4.63199 48.8655 4.54524C48.9011 4.45848 48.9539 4.37979 49.0206 4.31383C49.0848 4.24656 49.1623 4.19335 49.2481 4.15759C49.3339 4.12182 49.4262 4.10429 49.5192 4.10608C49.6125 4.10564 49.7049 4.12385 49.791 4.15963C49.8772 4.19541 49.9553 4.24805 50.0208 4.31445C50.0863 4.38085 50.1379 4.45968 50.1725 4.54629C50.2071 4.63291 50.2241 4.72557 50.2224 4.81883C50.2247 4.9111 50.2077 5.00285 50.1725 5.08817C50.1373 5.17349 50.0846 5.25049 50.0178 5.31423ZM48.9982 11.8855V6.31463H50.0498V11.8855H48.9982Z" fill="white"/>
<path d="M53.85 11.9686C53.47 11.9774 53.0924 11.9063 52.7417 11.7598C52.391 11.6134 52.0749 11.3949 51.8141 11.1185C51.548 10.8524 51.3379 10.5358 51.1963 10.1872C51.0546 9.83857 50.9843 9.46513 50.9894 9.0889C50.9873 8.71056 51.0603 8.33555 51.2041 7.98559C51.3479 7.63564 51.5597 7.31769 51.8272 7.05015C52.0948 6.78261 52.4127 6.57081 52.7627 6.427C53.1126 6.28319 53.4876 6.21023 53.866 6.21235C54.4372 6.20455 54.9963 6.37676 55.4641 6.70456C55.9303 7.02443 56.2873 7.47956 56.4868 8.0086L55.512 8.2611C55.371 7.9388 55.143 7.66213 54.8536 7.46205C54.5687 7.2541 54.2251 7.14216 53.8724 7.14244C53.6168 7.13748 53.3631 7.18774 53.1286 7.28978C52.8942 7.39183 52.6846 7.54325 52.514 7.73373C52.1636 8.09912 51.9679 8.58582 51.9679 9.0921C51.9679 9.59838 52.1636 10.0851 52.514 10.4505C52.6838 10.6313 52.8895 10.7748 53.1179 10.8716C53.3463 10.9685 53.5924 11.0166 53.8404 11.013C54.193 11.0191 54.5386 10.914 54.828 10.7126C55.1105 10.5127 55.3318 10.2383 55.4673 9.91991L56.4421 10.1724C56.2398 10.6973 55.8846 11.1493 55.4225 11.47C54.9637 11.7972 54.4135 11.9716 53.85 11.9686Z" fill="white"/>
<path d="M59.7341 11.9686C59.3652 11.9736 58.9993 11.901 58.6602 11.7557C58.321 11.6103 58.0162 11.3954 57.7653 11.1249C57.5009 10.8567 57.2927 10.5386 57.1527 10.189C57.0128 9.83939 56.944 9.46541 56.9503 9.0889C56.9426 8.71269 57.0108 8.33879 57.1508 7.98953C57.2908 7.64027 57.4998 7.32282 57.7653 7.05614C58.0175 6.78794 58.3229 6.57524 58.6618 6.43162C59.0008 6.28799 59.366 6.21658 59.7341 6.22194C60.1104 6.20719 60.4842 6.28903 60.8199 6.45967C61.1556 6.63031 61.442 6.88407 61.6518 7.19677V6.31463H62.7034V11.8855H61.6518V11.0034C61.4432 11.2998 61.1657 11.5411 60.8432 11.7066C60.4998 11.8813 60.1195 11.9712 59.7341 11.9686ZM59.83 11.0098C60.0795 11.0129 60.327 10.9639 60.5565 10.866C60.786 10.768 60.9925 10.6232 61.1628 10.4409C61.52 10.0816 61.7205 9.59553 61.7205 9.0889C61.7205 8.58227 61.52 8.09623 61.1628 7.73693C60.9898 7.55613 60.7819 7.41224 60.5518 7.31394C60.3216 7.21564 60.0739 7.16496 59.8236 7.16496C59.5734 7.16496 59.3257 7.21564 59.0955 7.31394C58.8654 7.41224 58.6575 7.55613 58.4844 7.73693C58.3099 7.9155 58.1725 8.12697 58.0804 8.35905C57.9882 8.59114 57.943 8.83922 57.9475 9.0889C57.9424 9.34151 57.9887 9.59251 58.0838 9.8266C58.1789 10.0607 58.3206 10.273 58.5004 10.4505C58.6714 10.6306 58.8778 10.7736 59.1066 10.8704C59.3354 10.9672 59.5816 11.0157 59.83 11.013V11.0098Z" fill="white"/>
<path d="M63.6463 11.8855V6.31463H64.6946V7.32462C64.8568 6.94535 65.1509 6.63766 65.5224 6.45846C65.9531 6.2569 66.4374 6.19973 66.9031 6.29545V7.40772C66.6468 7.31919 66.3731 7.29302 66.1046 7.33137C65.8362 7.36972 65.5807 7.47149 65.3594 7.62826C65.1367 7.79361 64.9591 8.01225 64.843 8.26412C64.7268 8.51599 64.6758 8.793 64.6946 9.06973V11.8855H63.6463Z" fill="white"/>
<path d="M8.08734 0.200195C5.96561 0.200195 3.93078 1.04305 2.43049 2.54334C0.930196 4.04363 0.0873413 6.07846 0.0873413 8.20019C0.0873413 10.3219 0.930196 12.3568 2.43049 13.857C3.93078 15.3573 5.96561 16.2002 8.08734 16.2002H16.0778V8.19061C16.0778 6.07142 15.2359 4.03903 13.7374 2.54053C12.2389 1.04204 10.2065 0.200195 8.08734 0.200195V0.200195ZM8.08734 14.6564V1.74075C8.94749 1.72161 9.80279 1.8745 10.603 2.19044C11.4033 2.50638 12.1324 2.979 12.7475 3.58056C13.3625 4.18212 13.8513 4.9005 14.1849 5.69352C14.5186 6.48655 14.6905 7.33824 14.6905 8.1986C14.6905 9.05896 14.5186 9.91064 14.1849 10.7037C13.8513 11.4967 13.3625 12.2151 12.7475 12.8166C12.1324 13.4182 11.4033 13.8908 10.603 14.2068C9.80279 14.5227 8.94749 14.6756 8.08734 14.6564Z" fill="white"/>
</g>
<defs>
<clipPath id="clip0_6829_16248">
<rect width="66.8062" height="16" fill="white" transform="translate(0.0969238 0.200195)"/>
</clipPath>
</defs>
</svg>
