<svg width="30" height="24" viewBox="0 0 30 24" fill="none" xmlns="http://www.w3.org/2000/svg">
<path d="M1.07144 19.4245C0.787275 19.4245 0.51475 19.3128 0.313817 19.1139C0.112883 18.915 0 18.6452 0 18.3639V9.87898C0 9.59769 0.112883 9.32791 0.313817 9.12901C0.51475 8.93011 0.787275 8.81836 1.07144 8.81836C1.3556 8.81836 1.62812 8.93011 1.82906 9.12901C2.02999 9.32791 2.14287 9.59769 2.14287 9.87898V18.3639C2.14287 18.6452 2.02999 18.915 1.82906 19.1139C1.62812 19.3128 1.3556 19.4245 1.07144 19.4245Z" fill="url(#paint0_linear_7168_13830)"/>
<path d="M4.28575 15.1819H1.07144C0.787274 15.1819 0.51475 15.0701 0.313817 14.8712C0.112883 14.6723 0 14.4026 0 14.1213C0 13.84 0.112883 13.5702 0.313817 13.3713C0.51475 13.1724 0.787274 13.0607 1.07144 13.0607H4.28575C4.56991 13.0607 4.84244 13.1724 5.04337 13.3713C5.2443 13.5702 5.35719 13.84 5.35719 14.1213C5.35719 14.4026 5.2443 14.6723 5.04337 14.8712C4.84244 15.0701 4.56991 15.1819 4.28575 15.1819Z" fill="url(#paint1_linear_7168_13830)"/>
<path d="M21.4285 23.6668H10.7142C10.5478 23.6668 10.3838 23.6285 10.235 23.5549C10.0862 23.4812 9.95682 23.3743 9.85702 23.2426L6.96414 19.4244H4.28555C4.00139 19.4244 3.72886 19.3126 3.52793 19.1137C3.32699 18.9148 3.21411 18.645 3.21411 18.3638V8.81823C3.21411 8.53693 3.32699 8.26716 3.52793 8.06826C3.72886 7.86935 4.00139 7.75761 4.28555 7.75761H6.42842V5.63638C6.42842 5.35509 6.54131 5.08532 6.74224 4.88642C6.94317 4.68751 7.2157 4.57577 7.49986 4.57577H18.2142C18.3752 4.5765 18.5339 4.61312 18.6786 4.68289C18.8232 4.75266 18.9502 4.8538 19.05 4.9788L23.0143 9.87884H23.5714V7.75761C23.5714 7.47632 23.6843 7.20655 23.8852 7.00764C24.0862 6.80874 24.3587 6.697 24.6429 6.697H26.7857C27.6382 6.697 28.4558 7.03223 29.0586 7.62894C29.6614 8.22565 30 9.03496 30 9.87884V18.3638C30 19.2076 29.6614 20.0169 29.0586 20.6137C28.4558 21.2104 27.6382 21.5456 26.7857 21.5456H24.6429C24.3587 21.5456 24.0862 21.4339 23.8852 21.235C23.6843 21.036 23.5714 20.7663 23.5714 20.485V18.3638H22.5V22.6062C22.5 22.8875 22.3871 23.1573 22.1862 23.3562C21.9852 23.5551 21.7127 23.6668 21.4285 23.6668ZM11.2499 21.5456H20.3571V17.3031C20.3571 17.0218 20.47 16.7521 20.6709 16.5532C20.8719 16.3543 21.1444 16.2425 21.4285 16.2425H24.6429C24.927 16.2425 25.1995 16.3543 25.4005 16.5532C25.6014 16.7521 25.7143 17.0218 25.7143 17.3031V19.4244H26.7857C27.0699 19.4244 27.3424 19.3126 27.5434 19.1137C27.7443 18.9148 27.8572 18.645 27.8572 18.3638V9.87884C27.8572 9.59755 27.7443 9.32778 27.5434 9.12887C27.3424 8.92997 27.0699 8.81823 26.7857 8.81823H25.7143V10.9395C25.7143 11.2207 25.6014 11.4905 25.4005 11.6894C25.1995 11.8883 24.927 12.0001 24.6429 12.0001H22.5C22.339 11.9993 22.1803 11.9627 22.0357 11.8929C21.891 11.8232 21.764 11.722 21.6643 11.597L17.6999 6.697H8.5713V8.81823C8.5713 9.09952 8.45841 9.36929 8.25748 9.56819C8.05655 9.7671 7.78402 9.87884 7.49986 9.87884H5.35699V17.3031H7.49986C7.6662 17.3031 7.83025 17.3415 7.97902 17.4151C8.1278 17.4887 8.25721 17.5957 8.35701 17.7274L11.2499 21.5456Z" fill="url(#paint2_linear_7168_13830)"/>
<path d="M17.1429 2.4546H8.57144C8.28727 2.4546 8.01475 2.34286 7.81382 2.14396C7.61288 1.94505 7.5 1.67528 7.5 1.39399C7.5 1.1127 7.61288 0.842925 7.81382 0.644021C8.01475 0.445117 8.28727 0.333374 8.57144 0.333374H17.1429C17.4271 0.333374 17.6996 0.445117 17.9006 0.644021C18.1015 0.842925 18.2144 1.1127 18.2144 1.39399C18.2144 1.67528 18.1015 1.94505 17.9006 2.14396C17.6996 2.34286 17.4271 2.4546 17.1429 2.4546Z" fill="url(#paint3_linear_7168_13830)"/>
<path d="M12.8574 6.69706C12.5732 6.69706 12.3007 6.58532 12.0998 6.38641C11.8988 6.18751 11.786 5.91774 11.786 5.63645V1.39399C11.786 1.1127 11.8988 0.842925 12.0998 0.644021C12.3007 0.445117 12.5732 0.333374 12.8574 0.333374C13.1416 0.333374 13.4141 0.445117 13.615 0.644021C13.816 0.842925 13.9288 1.1127 13.9288 1.39399V5.63645C13.9288 5.91774 13.816 6.18751 13.615 6.38641C13.4141 6.58532 13.1416 6.69706 12.8574 6.69706Z" fill="url(#paint4_linear_7168_13830)"/>
<defs>
<linearGradient id="paint0_linear_7168_13830" x1="-22.6692" y1="-40.8277" x2="42.9786" y2="-14.5723" gradientUnits="userSpaceOnUse">
<stop offset="0.715083" stop-color="#686869"/>
<stop offset="1"/>
</linearGradient>
<linearGradient id="paint1_linear_7168_13830" x1="-22.6692" y1="-40.8277" x2="42.9786" y2="-14.5723" gradientUnits="userSpaceOnUse">
<stop offset="0.715083" stop-color="#686869"/>
<stop offset="1"/>
</linearGradient>
<linearGradient id="paint2_linear_7168_13830" x1="-22.6692" y1="-40.8277" x2="42.9786" y2="-14.5723" gradientUnits="userSpaceOnUse">
<stop offset="0.715083" stop-color="#686869"/>
<stop offset="1"/>
</linearGradient>
<linearGradient id="paint3_linear_7168_13830" x1="-22.6692" y1="-40.8277" x2="42.9786" y2="-14.5723" gradientUnits="userSpaceOnUse">
<stop offset="0.715083" stop-color="#686869"/>
<stop offset="1"/>
</linearGradient>
<linearGradient id="paint4_linear_7168_13830" x1="-22.6692" y1="-40.8277" x2="42.9786" y2="-14.5723" gradientUnits="userSpaceOnUse">
<stop offset="0.715083" stop-color="#686869"/>
<stop offset="1"/>
</linearGradient>
</defs>
</svg>
