<svg width="28" height="34" viewBox="0 0 28 34" fill="none" xmlns="http://www.w3.org/2000/svg">
<path d="M22.596 12.0324C22.5832 11.8178 22.5693 11.5969 22.5554 11.3709L22.996 11.757C23.1513 11.8932 23.344 11.9599 23.5352 11.9599C23.7634 11.9599 23.9898 11.865 24.1521 11.6808C24.4499 11.3401 24.4158 10.8233 24.0751 10.5247L22.6436 9.27014C22.5711 9.20714 22.4905 9.16208 22.4059 9.12875C22.2619 7.06977 22.1209 5.22215 22.1176 5.18516C21.8916 2.75512 19.7224 0.777832 17.2737 0.777832L11.2956 0.787356C8.85169 0.790286 6.68429 2.77417 6.46341 5.23058C6.46341 5.23058 6.33997 7.15439 6.20884 9.25183C6.20078 9.25879 6.19089 9.26281 6.18356 9.27051L4.75279 10.5251C4.41286 10.8229 4.3788 11.3405 4.67733 11.6804C4.83887 11.8654 5.06561 11.9595 5.29345 11.9595C5.48503 11.9595 5.67697 11.8929 5.83264 11.7566L6.06744 11.5507C6.05792 11.7145 6.04803 11.8734 6.03851 12.0298L0.926052 19.32C0.666711 19.6903 0.756455 20.2009 1.12678 20.461C1.26964 20.561 1.43338 20.609 1.59638 20.609C1.85426 20.609 2.1081 20.4874 2.26744 20.2603L7.22019 13.1972C7.46085 13.0668 7.63191 12.8218 7.64949 12.5284C7.81103 9.79651 8.09602 5.35659 8.09602 5.35659C8.24107 3.7423 9.6777 2.42765 11.2982 2.42545L17.281 2.41593C18.8986 2.41593 20.3367 3.72618 20.4847 5.32362C20.4883 5.36721 20.8231 9.7412 20.9839 12.5273C21.0008 12.8189 21.1737 13.0665 21.4118 13.1976L26.3645 20.2606C26.5239 20.4881 26.7777 20.6093 27.0356 20.6093C27.1982 20.6093 27.3623 20.5613 27.5052 20.4613C27.8755 20.2013 27.9649 19.691 27.7059 19.3203L22.596 12.0324Z" fill="url(#paint0_linear_7168_13838)"/>
<path d="M22.5803 21.6779C22.3209 21.3076 21.8096 21.2179 21.4396 21.4779C21.2033 21.6431 21.0828 21.9105 21.0924 22.1787C21.0854 22.2208 21.0795 22.2622 21.0795 22.3061L21.0905 28.5571C21.0905 29.3398 20.7847 30.0776 20.2301 30.6336C19.6729 31.1911 18.937 31.4995 18.1572 31.501L10.5033 31.5127C9.72349 31.5127 8.98796 31.2278 8.43265 30.7102C7.87514 30.1911 7.56781 29.5039 7.56708 28.7735L7.55279 22.1219C7.55133 21.6702 7.18539 21.3043 6.73374 21.3043H6.73155C6.43228 21.305 6.17404 21.468 6.03081 21.708L0.926052 28.9882C0.666711 29.3585 0.756455 29.8688 1.12678 30.1285C1.26964 30.2292 1.43338 30.2776 1.59638 30.2776C1.85426 30.2776 2.1081 30.1552 2.26744 29.9285L5.92056 24.7193L5.92935 28.7761C5.93081 29.964 6.42422 31.0761 7.31653 31.908C8.1755 32.7094 9.3081 33.1508 10.5114 33.1508L18.1601 33.1391C19.3777 33.1369 20.525 32.6578 21.3905 31.7911C22.2539 30.9256 22.7293 29.7768 22.7293 28.5556L22.7228 24.7332L26.3656 29.9285C26.525 30.1552 26.7788 30.2776 27.0367 30.2776C27.1993 30.2776 27.3634 30.2296 27.5063 30.1285C27.8766 29.8688 27.966 29.3582 27.707 28.9882L22.5803 21.6779Z" fill="url(#paint1_linear_7168_13838)"/>
<path d="M20.0427 8.94118C19.9907 8.33239 19.616 7.80968 19.0592 7.57634C18.8526 7.49136 16.9661 6.74411 14.298 6.74411C11.635 6.74924 9.7471 7.50711 9.53684 7.59429C8.98373 7.82909 8.60973 8.35327 8.56212 8.95986L8.19252 13.4456C8.15332 13.9551 8.35259 14.461 8.72658 14.798C9.0145 15.0577 9.38629 15.2016 9.77347 15.2016C9.90754 15.2016 10.0401 15.1848 10.1603 15.1529C10.3771 15.0983 12.3412 14.6185 14.3288 14.6144C16.3698 14.6144 18.4398 15.1335 18.4581 15.1379C18.9588 15.2668 19.5035 15.132 19.8925 14.7811C20.2702 14.4397 20.468 13.9302 20.4218 13.4221L20.0427 8.94118ZM14.3277 12.976C12.2976 12.9796 10.302 13.4324 9.82805 13.5478L10.1731 9.10418C10.2427 9.07451 11.9156 8.3866 14.324 8.3822C16.69 8.3822 18.3639 9.06132 18.4105 9.08001L18.7922 13.5331C18.3837 13.4342 16.3797 12.976 14.3277 12.976Z" fill="url(#paint2_linear_7168_13838)"/>
<path d="M8.21799 23.6328L8.59492 26.6177C8.66744 27.1976 9.0407 27.6947 9.57111 27.9152C9.77697 28.0005 11.6587 28.7492 14.3092 28.7492H14.333C16.9931 28.7449 18.8836 27.9862 19.092 27.8998C19.6198 27.6785 19.9916 27.18 20.0612 26.6024L20.4316 23.6141C20.5231 22.8778 20.1176 22.1719 19.448 21.9005C19.4239 21.891 16.9466 20.8785 14.3198 20.8785C11.707 20.8829 9.22019 21.9078 9.20334 21.9155C8.52971 22.1888 8.12459 22.8943 8.21799 23.6328ZM14.3209 22.517C16.6154 22.517 18.8004 23.4057 18.8059 23.4122L18.4594 26.3884C18.3891 26.4181 16.7121 27.1068 14.3301 27.1112H14.3092C11.9359 27.1112 10.2678 26.4313 10.2198 26.4133L9.82642 23.4295C9.84766 23.421 12.04 22.5207 14.3209 22.517Z" fill="url(#paint3_linear_7168_13838)"/>
<path d="M6.80568 19.9328C7.25843 19.9328 7.62473 19.5657 7.62473 19.1141V16.7416C7.62473 16.2899 7.25806 15.9225 6.80568 15.9225C6.3533 15.9225 5.98663 16.2899 5.98663 16.7416V19.1141C5.98663 19.5657 6.3533 19.9328 6.80568 19.9328Z" fill="url(#paint4_linear_7168_13838)"/>
<path d="M22.6389 19.1141V16.7416C22.6389 16.2899 22.2726 15.9225 21.8199 15.9225C21.3671 15.9225 21.0008 16.2899 21.0008 16.7416V19.1141C21.0008 19.5658 21.3675 19.9328 21.8199 19.9328C22.2723 19.9328 22.6389 19.5658 22.6389 19.1141Z" fill="url(#paint5_linear_7168_13838)"/>
<defs>
<linearGradient id="paint0_linear_7168_13838" x1="-19.6828" y1="-56.3293" x2="44.6892" y2="-39.5809" gradientUnits="userSpaceOnUse">
<stop offset="0.715083" stop-color="#686869"/>
<stop offset="1"/>
</linearGradient>
<linearGradient id="paint1_linear_7168_13838" x1="-19.6828" y1="-56.3293" x2="44.6892" y2="-39.5809" gradientUnits="userSpaceOnUse">
<stop offset="0.715083" stop-color="#686869"/>
<stop offset="1"/>
</linearGradient>
<linearGradient id="paint2_linear_7168_13838" x1="-19.6828" y1="-56.3293" x2="44.6892" y2="-39.5809" gradientUnits="userSpaceOnUse">
<stop offset="0.715083" stop-color="#686869"/>
<stop offset="1"/>
</linearGradient>
<linearGradient id="paint3_linear_7168_13838" x1="-19.6828" y1="-56.3293" x2="44.6892" y2="-39.5809" gradientUnits="userSpaceOnUse">
<stop offset="0.715083" stop-color="#686869"/>
<stop offset="1"/>
</linearGradient>
<linearGradient id="paint4_linear_7168_13838" x1="-19.6828" y1="-56.3293" x2="44.6892" y2="-39.5809" gradientUnits="userSpaceOnUse">
<stop offset="0.715083" stop-color="#686869"/>
<stop offset="1"/>
</linearGradient>
<linearGradient id="paint5_linear_7168_13838" x1="-19.6828" y1="-56.3293" x2="44.6892" y2="-39.5809" gradientUnits="userSpaceOnUse">
<stop offset="0.715083" stop-color="#686869"/>
<stop offset="1"/>
</linearGradient>
</defs>
</svg>
