<svg width="24" height="24" viewBox="0 0 24 24" fill="none" xmlns="http://www.w3.org/2000/svg">
<path d="M23.5442 5.80212L19.3059 1.56384C19.1237 1.42712 18.8958 1.42712 18.7591 1.56384L18.2578 2.06514C18.1211 2.20186 18.1211 2.42973 18.2578 2.56645L19.625 3.93363V7.62504C19.625 8.85551 20.582 9.81254 21.8125 9.81254H22.5416V17.7878C22.5416 18.517 22.0403 19.155 21.3112 19.2917C20.3997 19.4284 19.625 18.7448 19.625 17.8334V15.6459C19.625 13.6407 17.9843 12 15.9791 12H15.25V3.25004C15.25 1.65499 13.9283 0.333374 12.3333 0.333374H5.04163C3.401 0.333374 2.12496 1.65499 2.12496 3.25004V22.2084H1.03121C0.803345 22.2084 0.666626 22.3907 0.666626 22.573V23.3021C0.666626 23.53 0.803345 23.6667 1.03121 23.6667H16.3437C16.526 23.6667 16.7083 23.53 16.7083 23.3021V22.573C16.7083 22.3907 16.526 22.2084 16.3437 22.2084H15.25V13.4584H15.9791C17.164 13.4584 18.1666 14.461 18.1666 15.6459V17.6967C18.1666 19.155 19.1237 20.4766 20.582 20.75C22.4049 21.0235 24 19.6107 24 17.8334V6.8503C24 6.48572 23.8177 6.07556 23.5442 5.80212ZM22.5416 8.35421H21.8125C21.4023 8.35421 21.0833 8.0352 21.0833 7.62504V5.39197L22.5416 6.8503V8.35421ZM13.7916 22.2084H3.58329V10.5417H13.7916V22.2084ZM13.7916 9.08337H3.58329V3.25004C3.58329 2.4753 4.22131 1.79171 5.04163 1.79171H12.3333C13.108 1.79171 13.7916 2.4753 13.7916 3.25004V9.08337Z" fill="url(#paint0_linear_7168_13814)"/>
<defs>
<linearGradient id="paint0_linear_7168_13814" x1="-16.965" y1="-40.8275" x2="37.0362" y2="-24.0294" gradientUnits="userSpaceOnUse">
<stop offset="0.715083" stop-color="#686869"/>
<stop offset="1"/>
</linearGradient>
</defs>
</svg>
