<svg version="1.2" xmlns="http://www.w3.org/2000/svg" viewBox="0 0 133 54" width="133" height="54">
	<defs>
		<clipPath clipPathUnits="userSpaceOnUse" id="cp1">
			<path d="m8.61 8.78h115.65v25.48h-115.65z"/>
		</clipPath>
	</defs>
	<style>
		.s0 { fill: #ee3124 } 
		.s1 { fill: #ffffff } 
	</style>
	<g id="Clip-Path" clip-path="url(#cp1)">
		<g>
			<path class="s0" d="m61.63 17.93h-6.6v15.82h6.6z"/>
			<path class="s0" d="m61.63 15.9v-6.58h-16.1v0.42q0 0.23-0.07 0.52l-2.8 16.7q-0.14 0.83-0.87 0.83-0.32 0-0.54-0.16-0.22-0.16-0.33-0.6l-3.66-13.3q-0.69-2.49-2.21-3.72-1.52-1.23-4.46-1.23-2.98 0-4.57 1.25-1.6 1.25-2.36 3.88l-3.73 13.12q-0.11 0.44-0.33 0.6-0.22 0.16-0.54 0.16-0.76 0-0.87-0.83l-2.58-16.7q-0.03-0.25-0.05-0.5-0.02-0.25-0.02-0.44h-6.93q0 0.47 0.11 1.16l3.05 18.32q0.18 1.16 0.69 2.17 0.5 1.01 1.37 1.74 0.88 0.72 2.13 1.13 1.25 0.42 2.92 0.42 2.82 0 4.56-1.32 1.74-1.32 2.54-4.14l3.81-13.48q0.18-0.72 0.8-0.72 0.61 0 0.8 0.72l3.51 13.48q1.45 5.46 6.93 5.46 3.3 0 5.02-1.5 1.72-1.5 2.16-3.92l2.3-12.94z"/>
			<path class="s1" d="m124.25 21.54q0-2.68-1.05-4.99-1.05-2.31-2.9-4.01-1.63-1.52-3.86-2.37-2.23-0.85-5.2-0.85h-33.95q-2.97 0-5.2 0.85-2.23 0.85-3.86 2.37-1.85 1.7-2.9 4.01-1.06 2.31-1.06 4.99 0 2.42 0.84 4.52 0.83 2.09 2.32 3.72 1.7 1.84 4.13 2.91 2.43 1.06 5.73 1.06h11.72q1.55 0 1.55-1.55v-11.82h-6.52v6.54q0 0.51-0.47 0.51h-6.28q-1.74 0-2.93-0.56-1.2-0.56-2-1.43-0.72-0.76-1.12-1.75-0.4-0.99-0.4-2.12 0-1.22 0.49-2.31 0.49-1.08 1.32-1.88 0.8-0.72 1.89-1.15 1.08-0.44 2.75-0.44h13.24 3.98q-0.2 0.37-0.39 0.76-1.05 2.31-1.05 4.99 0 2.42 0.83 4.52 0.84 2.09 2.32 3.72 1.71 1.84 4.14 2.91 2.43 1.06 5.73 1.06h5.15q3.3 0 5.73-1.06 2.43-1.07 4.13-2.91 1.49-1.63 2.32-3.72 0.84-2.1 0.83-4.52zm-6.56 0.03q0 1.13-0.4 2.12-0.4 0.99-1.12 1.75-0.8 0.87-2 1.37-1.19 0.51-2.93 0.51h-5.15q-1.74 0-2.94-0.51-1.2-0.5-1.99-1.37-0.73-0.76-1.13-1.75-0.4-0.99-0.4-2.12 0-1.22 0.49-2.31 0.49-1.08 1.33-1.88 0.79-0.72 1.88-1.15 1.09-0.44 2.76-0.44h5.15q1.67 0 2.75 0.44 1.09 0.43 1.89 1.15 0.83 0.8 1.32 1.88 0.49 1.09 0.49 2.31z"/>
		</g>
	</g>
	<path class="s1" d="m77.41 45.24q1.16 0 2.02-0.38 0.86-0.38 1.46-1.03 0.53-0.57 0.82-1.31 0.3-0.74 0.3-1.6 0-0.95-0.37-1.76-0.38-0.82-1.03-1.42-0.58-0.54-1.36-0.84-0.79-0.3-1.84-0.3h-1.82q-1.05 0-1.84 0.3-0.79 0.3-1.37 0.84-0.65 0.6-1.02 1.42-0.37 0.81-0.37 1.76 0 0.86 0.29 1.6 0.29 0.74 0.82 1.31 0.6 0.65 1.46 1.03 0.86 0.38 2.03 0.38zm0-6.35q0.59 0 0.97 0.15 0.39 0.16 0.67 0.41 0.29 0.28 0.47 0.66 0.17 0.39 0.17 0.82 0 0.4-0.14 0.75-0.14 0.35-0.4 0.62-0.28 0.31-0.71 0.48-0.42 0.18-1.03 0.18h-1.82q-0.62 0-1.04-0.18-0.42-0.17-0.71-0.48-0.25-0.27-0.39-0.62-0.15-0.35-0.14-0.75-0.01-0.43 0.17-0.82 0.17-0.38 0.47-0.66 0.28-0.25 0.66-0.41 0.39-0.15 0.98-0.15zm4.69-2.29v2.29h3.8v6.35h2.34v-6.35h3.79v-2.29zm16.43 8.64q1.17 0 2.03-0.38 0.86-0.38 1.46-1.03 0.53-0.57 0.82-1.31 0.3-0.74 0.3-1.6 0-0.95-0.38-1.76-0.37-0.82-1.02-1.42-0.58-0.54-1.37-0.84-0.79-0.3-1.84-0.3h-1.82q-1.05 0-1.84 0.3-0.78 0.3-1.36 0.84-0.65 0.6-1.03 1.42-0.37 0.81-0.37 1.76 0 0.86 0.3 1.6 0.29 0.74 0.82 1.31 0.6 0.65 1.46 1.03 0.86 0.38 2.02 0.38zm0-6.35q0.59 0 0.98 0.15 0.38 0.16 0.66 0.41 0.3 0.28 0.47 0.66 0.18 0.39 0.18 0.82 0 0.4-0.15 0.75-0.14 0.35-0.39 0.62-0.29 0.31-0.71 0.48-0.42 0.18-1.04 0.18h-1.82q-0.61 0-1.03-0.18-0.43-0.17-0.71-0.48-0.26-0.27-0.4-0.62-0.14-0.35-0.14-0.75 0-0.43 0.17-0.82 0.18-0.38 0.47-0.66 0.28-0.25 0.67-0.41 0.38-0.15 0.97-0.15zm7.91 3.28h4.04q0.51 0 0.73 0.18 0.22 0.18 0.22 0.59v1.72q0 0.3 0.04 0.58h2.34q-0.02-0.18-0.03-0.36-0.01-0.18-0.01-0.46v-1.72q0-0.75-0.19-1.14-0.2-0.4-0.64-0.65 0.46-0.33 0.64-0.8 0.18-0.47 0.18-0.99 0-0.49-0.18-0.93-0.19-0.44-0.51-0.77-0.36-0.37-0.89-0.59-0.52-0.23-1.33-0.23h-6.15q-0.58 0-0.58 0.54v8.1h2.32zm0-1.97v-1.25q0-0.19 0.19-0.19h3.91q0.43 0 0.63 0.23 0.19 0.19 0.19 0.48 0 0.24-0.16 0.45-0.11 0.13-0.26 0.2-0.15 0.08-0.4 0.08zm17.41-3.6h-6.36q-0.87 0-1.39 0.21-0.53 0.21-0.88 0.57-0.34 0.35-0.54 0.81-0.2 0.46-0.2 0.99 0 0.53 0.19 0.99 0.19 0.45 0.54 0.81 0.35 0.36 0.88 0.57 0.53 0.21 1.4 0.21h3.53q0.25 0 0.39 0.04 0.13 0.05 0.22 0.15 0.18 0.18 0.18 0.46 0 0.23-0.14 0.4-0.09 0.1-0.24 0.16-0.14 0.05-0.41 0.05h-6.31v2.21h6.72q0.77 0 1.3-0.24 0.53-0.24 0.89-0.65 0.29-0.35 0.47-0.78 0.17-0.43 0.17-0.91 0-0.51-0.2-0.97-0.2-0.46-0.54-0.82-0.35-0.35-0.86-0.56-0.5-0.21-1.23-0.22h-3.81q-0.2 0-0.31-0.03-0.11-0.03-0.19-0.09-0.22-0.18-0.22-0.46 0-0.27 0.18-0.45 0.08-0.08 0.2-0.12 0.12-0.05 0.34-0.05h6.23z"/>
	<path class="s1" d="m62.42 42.91l-1.24-4.77q-0.52-1.92-2.45-1.92-1.17 0-1.78 0.53-0.61 0.53-0.76 1.38l-1.15 6.49q-0.03 0.14-0.04 0.22 0 0.09 0 0.19h2.42v-0.15q0-0.08 0.03-0.18l0.98-5.9q0.05-0.3 0.31-0.3 0.12 0 0.19 0.06 0.08 0.06 0.12 0.21l1.29 4.7q0.25 0.88 0.78 1.32 0.54 0.43 1.58 0.43 1.05 0 1.62-0.44 0.56-0.44 0.83-1.37l1.32-4.64q0.04-0.15 0.11-0.21 0.08-0.06 0.2-0.06 0.27 0 0.3 0.3l0.91 5.9q0.02 0.09 0.02 0.18 0.01 0.09 0.01 0.15h2.45q0-0.17-0.04-0.41l-1.08-6.48q-0.06-0.4-0.24-0.76-0.18-0.36-0.49-0.62-0.31-0.25-0.75-0.4-0.44-0.14-1.03-0.14-1 0-1.61 0.46-0.62 0.47-0.9 1.46l-1.35 4.77q-0.06 0.25-0.28 0.25-0.22 0-0.28-0.25z"/>
</svg>