<svg width="27" height="21" viewBox="0 0 27 21" fill="none" xmlns="http://www.w3.org/2000/svg">
<path d="M13.7915 5.46875C14.384 5.46875 14.8853 5.01302 14.8853 4.375C14.8853 3.78255 14.384 3.28125 13.7915 3.28125C13.1535 3.28125 12.6978 3.78255 12.6978 4.375C12.6978 5.01302 13.1535 5.46875 13.7915 5.46875ZM7.59359 5.83333C6.95557 5.83333 6.49984 6.33464 6.49984 6.92708C6.49984 7.5651 6.95557 8.02083 7.59359 8.02083C8.18604 8.02083 8.68734 7.5651 8.68734 6.92708C8.68734 6.33464 8.18604 5.83333 7.59359 5.83333ZM19.9894 5.83333C19.3514 5.83333 18.8957 6.33464 18.8957 6.92708C18.8957 7.5651 19.3514 8.02083 19.9894 8.02083C20.5819 8.02083 21.0832 7.5651 21.0832 6.92708C21.0832 6.33464 20.5819 5.83333 19.9894 5.83333ZM22.5415 12.0312C21.9035 12.0312 21.4478 12.5326 21.4478 13.125C21.4478 13.763 21.9035 14.2187 22.5415 14.2187C23.134 14.2187 23.6353 13.763 23.6353 13.125C23.6353 12.5326 23.134 12.0312 22.5415 12.0312ZM13.7915 0C6.49984 0 0.666504 5.87891 0.666504 13.125C0.666504 15.5404 1.30452 17.819 2.44385 19.7331C2.67171 20.1888 3.17301 20.4167 3.67432 20.4167H23.8631C24.3644 20.4167 24.8657 20.1888 25.0936 19.7331C26.2329 17.819 26.9165 15.5404 26.9165 13.125C26.9165 5.87891 21.0376 0 13.7915 0ZM23.8631 18.9583L3.67432 19.0039C2.67171 17.2266 2.12484 15.2214 2.12484 13.125C2.12484 6.69922 7.32015 1.45833 13.7915 1.45833C20.2173 1.45833 25.4582 6.69922 25.4582 13.125C25.4582 15.2214 24.9113 17.2266 23.8631 18.9583ZM5.0415 12.0312C4.40348 12.0312 3.94775 12.5326 3.94775 13.125C3.94775 13.763 4.40348 14.2187 5.0415 14.2187C5.63395 14.2187 6.13525 13.763 6.13525 13.125C6.13525 12.5326 5.63395 12.0312 5.0415 12.0312ZM17.3006 4.42057C16.936 4.32943 16.4803 4.51172 16.3436 4.8763L14.0194 11.7122C13.9282 11.7122 13.8371 11.6667 13.7915 11.6667C12.1509 11.6667 10.8748 12.9883 10.8748 14.5833C10.8748 16.224 12.1509 17.5 13.7915 17.5C15.3866 17.5 16.7082 16.224 16.7082 14.5833C16.7082 13.5807 16.1613 12.7148 15.3866 12.168L17.7563 5.3776C17.8931 4.96745 17.6652 4.55729 17.3006 4.42057ZM13.7915 16.0417C12.9712 16.0417 12.3332 15.4036 12.3332 14.5833C12.3332 13.8086 12.9712 13.125 13.7915 13.125C14.5662 13.125 15.2498 13.8086 15.2498 14.5833C15.2498 15.4036 14.5662 16.0417 13.7915 16.0417Z" fill="url(#paint0_linear_7168_13806)"/>
<defs>
<linearGradient id="paint0_linear_7168_13806" x1="-19.169" y1="-36.0158" x2="38.2727" y2="-13.0422" gradientUnits="userSpaceOnUse">
<stop offset="0.715083" stop-color="#686869"/>
<stop offset="1"/>
</linearGradient>
</defs>
</svg>
