<svg width="27" height="28" viewBox="0 0 27 28" fill="none" xmlns="http://www.w3.org/2000/svg">
<path d="M24.143 0.666626H3.19064C1.5835 0.666626 0.333496 1.97615 0.333496 3.52377V24.4761C0.333496 26.0833 1.5835 27.3333 3.19064 27.3333H24.143C25.6906 27.3333 27.0002 26.0833 27.0002 24.4761V3.52377C27.0002 1.97615 25.6906 0.666626 24.143 0.666626ZM25.0954 24.4761C25.0954 25.0119 24.6192 25.4285 24.143 25.4285H3.19064C2.65492 25.4285 2.23826 25.0119 2.23826 24.4761V3.52377C2.23826 3.04758 2.65492 2.57139 3.19064 2.57139H24.143C24.6192 2.57139 25.0954 3.04758 25.0954 3.52377V24.4761ZM17.4083 8.28567H15.0274V6.38091C15.0274 6.02377 14.6702 5.66663 14.3131 5.66663H13.8369C13.4202 5.66663 13.1226 6.02377 13.1226 6.38091V8.28567H10.7417C9.90833 8.28567 9.31309 8.94043 9.31309 9.71424V12.5714C9.31309 13.4047 9.90833 14 10.7417 14H13.1226V23.0816C13.1226 23.4983 13.4202 23.7959 13.8369 23.7959H14.3131C14.6702 23.7959 15.0274 23.4983 15.0274 23.0816V14H17.4083C18.1821 14 18.8369 13.4047 18.8369 12.5714V9.71424C18.8369 8.94043 18.1821 8.28567 17.4083 8.28567ZM16.9321 12.0952H11.2178V10.1904H16.9321V12.0952Z" fill="url(#paint0_linear_7168_13822)"/>
<defs>
<linearGradient id="paint0_linear_7168_13822" x1="-19.8169" y1="-46.3744" x2="41.8988" y2="-27.1766" gradientUnits="userSpaceOnUse">
<stop offset="0.715083" stop-color="#686869"/>
<stop offset="1"/>
</linearGradient>
</defs>
</svg>
