<svg version="1.2" xmlns="http://www.w3.org/2000/svg" viewBox="0 0 49 37" width="49" height="37">
	<style>
		.s0 { fill: #ffffff } 
	</style>
	<path class="s0" d="m47.74 9.81c-0.65-1.03-1.87-1.78-3.18-1.78h-4.6l-0.75-2.25c-1.03-3.09-3.93-5.25-7.12-5.25h-15.47c-3.19 0-6.09 2.16-7.13 5.25l-0.75 2.25h-4.59c-1.31 0-2.53 0.75-3.19 1.78-0.75 1.13-0.75 2.54-0.18 3.66l0.56 1.13c0.37 0.75 0.84 1.31 1.59 1.78-0.65 1.03-1.03 2.34-1.03 3.65v12c0 2.53 1.97 4.5 4.5 4.5h1.5c2.44 0 4.5-1.97 4.5-4.5v-1.5h24v1.5c0 2.53 1.97 4.5 4.5 4.5h1.5c2.44 0 4.5-1.97 4.5-4.5v-12c0-1.31-0.47-2.62-1.12-3.65 0.75-0.47 1.31-1.03 1.59-1.78l0.56-1.13c0.56-1.12 0.56-2.53-0.19-3.66zm-3.93 14.72v3h-38.91v-7.5c0-2.43 1.97-4.5 4.5-4.5h29.91c2.53 0 4.5 2.07 4.5 4.5zm-6.75-6.75c-2.25 0-5.16 2.25-5.16 4.5 0 1.13 0.47 3.1 4.22 3.1l0.94-0.1c2.43 0 4.22-1.5 4.22-3.75-0.1-2.15-1.79-3.75-4.22-3.75zm0 5.25c-0.28 0-0.66 0-0.94 0-1.03 0-2.06 0-2.06-0.75 0-0.84 1.78-2.25 3-2.25 1.12 0 1.87 0.66 1.87 1.5 0 0.94-0.75 1.5-1.87 1.5zm-25.41-5.25c-2.44 0-4.12 1.6-4.12 3.75 0 2.25 1.68 3.75 4.12 3.75h0.94c3.75 0 4.31-1.87 4.31-3 0-2.25-3-4.5-5.25-4.5zm0.75-11.06c0.56-1.87 2.34-3.19 4.22-3.19h15.47c1.97 0 3.65 1.32 4.22 3.19l1.97 5.81h-27.85zm-8.44 6.57l-0.56-1.13c-0.09-0.37 0-0.65 0.1-0.75 0.09-0.09 0.28-0.37 0.65-0.37h3.66l-0.66 1.87c-0.75 0.28-1.5 0.66-2.15 1.13-0.38-0.1-0.85-0.38-1.04-0.75zm5.44 18.75c0 0.84-0.75 1.5-1.5 1.5h-1.5c-0.84 0-1.5-0.66-1.5-1.5v-1.5h4.5zm34.41 0c0 0.84-0.66 1.5-1.5 1.5h-1.5c-0.75 0-1.5-0.66-1.5-1.5v-1.5h4.5zm-31.22-9c-0.28 0-0.66 0-0.94 0-1.12 0-1.87-0.57-1.87-1.5 0-0.85 0.75-1.5 1.87-1.5 1.22 0 3 1.4 3 2.25 0 0.75-1.03 0.75-2.06 0.75zm32.72-10.88l-0.56 1.13c-0.19 0.37-0.66 0.65-1.04 0.75-0.65-0.47-1.4-0.85-2.15-1.13l-0.66-1.87h3.66c0.37 0 0.56 0.28 0.65 0.37 0.1 0.1 0.19 0.38 0.1 0.75z"/>
</svg>