<svg width="61" height="49" viewBox="0 0 61 49" fill="none" xmlns="http://www.w3.org/2000/svg">
<path d="M15.277 8.12322C15.652 8.68572 16.2145 9.06072 16.777 9.15447C17.4332 9.15447 18.0895 9.06072 18.5582 8.59197L23.4332 4.56072C24.0895 4.09197 24.1832 3.15447 23.6207 2.49822C23.152 1.84197 22.2145 1.74822 21.5582 2.31072L17.3395 5.77947L14.2457 1.18572C13.777 0.435721 12.8395 0.0607208 11.902 0.248221C10.9645 0.529471 10.3082 1.27947 10.2145 2.21697L9.65195 7.65447L4.3082 6.62322C3.3707 6.43572 2.4332 6.81072 1.96445 7.65447C1.40195 8.49822 1.4957 9.43572 2.15195 10.1857L5.6207 14.4045L1.02695 17.4982C0.276953 17.967 -0.0980469 18.9045 0.0894531 19.842C0.370703 20.7795 1.1207 21.4357 2.0582 21.5295L7.4957 22.092L6.46445 27.4357C6.27695 28.2795 6.83945 29.0295 7.58945 29.217C7.6832 29.217 7.77695 29.217 7.8707 29.217C8.6207 29.217 9.27695 28.7482 9.3707 28.092L10.5895 21.8107C10.777 21.2482 10.5895 20.592 10.2145 20.0295C9.83945 19.5607 9.27695 19.2795 8.6207 19.1857L4.4957 18.8107L7.96445 16.467C8.52695 16.092 8.8082 15.5295 8.90195 14.967C8.9957 14.8732 8.9957 14.6857 8.9957 14.592C8.9957 14.0295 8.8082 13.5607 8.4332 13.1857L5.8082 9.99822L9.9332 10.7482C10.4957 10.9357 11.152 10.7482 11.7145 10.3732C12.1832 9.99822 12.4645 9.43572 12.5582 8.77947L12.9332 4.65447L15.277 8.12322ZM26.4332 20.592C24.0895 19.9357 21.9332 20.967 21.3707 23.1232C20.8082 25.1857 22.1207 27.1545 24.4645 27.8107L25.402 27.9982C28.9645 29.0295 29.902 27.342 30.277 26.217C30.8395 23.967 28.5895 21.1545 26.4332 20.592ZM25.9645 25.842C25.5895 25.7482 25.3082 25.6545 25.027 25.6545C23.902 25.2795 23.3395 24.5295 23.527 23.6857C23.8082 22.842 24.652 22.3732 25.777 22.7482C26.902 23.0295 28.3082 24.8107 28.027 25.6545C27.8395 26.3107 26.902 26.1232 25.9645 25.842ZM56.5269 23.592L56.0582 15.9982C55.9644 12.8107 53.7144 9.99822 50.527 9.15447L35.6207 5.21697C32.527 4.37322 29.2457 5.59197 27.4645 8.31072L23.3395 14.6857C20.0582 14.7795 17.152 16.9357 16.3082 20.217L12.8395 33.2482C12.1832 35.592 13.5895 38.1232 16.027 38.6857L17.4332 39.1545C19.8707 39.717 22.3082 38.3107 22.9645 35.967L23.7145 33.0607L46.9645 39.2482L46.1207 42.1545C45.4645 44.4982 46.9645 47.0295 49.3082 47.6857L50.8082 48.0607C53.152 48.717 55.6832 47.217 56.3394 44.8732L59.8082 31.842C60.6519 28.5607 59.2457 25.2795 56.5269 23.592ZM29.902 9.99822C31.027 8.31072 32.9957 7.56072 34.8707 8.02947L49.777 12.0607C51.652 12.5295 52.9645 14.217 53.0582 16.1857L53.4332 22.3732L26.527 15.1545L29.902 9.99822ZM20.0582 35.1232C19.8707 35.967 19.027 36.4357 18.277 36.2482L16.777 35.8732C16.027 35.592 15.4645 34.7482 15.7457 33.9982L16.4957 31.092L20.8082 32.217L20.0582 35.1232ZM53.4332 44.1232C53.152 44.8732 52.402 45.342 51.5582 45.1545L50.152 44.7795C49.3082 44.592 48.8395 43.7482 49.027 42.9045L49.8707 39.9982L54.1832 41.217L53.4332 44.1232ZM56.9019 31.092L55.6832 35.4045L54.9332 38.3107L50.6207 37.092L47.7145 36.342L17.2457 28.1857L19.2145 20.967C19.8707 18.5295 22.3082 17.1232 24.7457 17.7795L53.7144 25.5607C56.0582 26.217 57.5582 28.6545 56.9019 31.092ZM50.902 27.1545C48.652 26.4982 45.277 27.9045 44.7145 30.1545C44.4332 31.1857 44.4332 33.1545 47.9957 34.092L48.9332 34.3732C51.277 34.9357 53.4332 33.9045 53.9957 31.842C54.5582 29.6857 53.2457 27.717 50.902 27.1545ZM51.8395 31.1857C51.5582 32.1232 50.6207 32.4982 49.4957 32.217C49.2145 32.1232 48.9332 32.0295 48.5582 31.9357C47.6207 31.6545 46.6832 31.3732 46.8707 30.717C47.152 29.7795 49.1207 28.9357 50.3395 29.3107C51.4645 29.592 52.027 30.342 51.8395 31.1857Z" fill="#EE3124"/>
</svg>
