<svg width="55" height="44" viewBox="0 0 55 44" fill="none" xmlns="http://www.w3.org/2000/svg">
<path d="M36.375 34.7838C36.875 35.2838 37.5417 35.5338 38.2917 35.5338H43.625C45.0417 35.5338 46.2917 34.3671 46.2917 32.8671V27.5338C46.2917 26.8671 45.9584 26.2005 45.4584 25.7005L21.4584 1.95046C20.875 1.28379 19.9584 0.867126 19.0417 0.867126C18.125 0.867126 17.2084 1.28379 16.625 1.95046L12.625 5.95046C11.9584 6.53379 11.5417 7.45046 11.5417 8.36713H11.625C11.625 9.36713 11.9584 10.2005 12.625 10.7838L36.375 34.7838ZM25.0417 9.20046L43.625 27.5338V32.8671H38.2917L19.9584 14.3671L25.0417 9.20046ZM14.4584 7.86713L18.5417 3.78379C18.625 3.70046 18.875 3.53379 19.0417 3.53379C19.2917 3.53379 19.4584 3.70046 19.625 3.78379L23.2917 7.53379L18.2084 12.6171L14.4584 8.95046C14.375 8.78379 14.2917 8.61713 14.2917 8.36713C14.2917 8.20046 14.375 7.95046 14.4584 7.86713ZM19.625 34.8671C19.625 35.2838 19.875 35.5338 20.2917 35.5338H33.375L30.7084 32.8671H20.2917C19.875 32.8671 19.625 33.2005 19.625 33.5338V34.8671ZM20.2917 27.5338H25.4584L22.7917 24.8671H20.2917C19.875 24.8671 19.625 25.2005 19.625 25.5338V26.8671C19.625 27.2838 19.875 27.5338 20.2917 27.5338ZM51.625 11.5338H35.0417L37.7084 14.2005H51.625V40.8671H3.62504V14.2005H12.2917L10.7917 12.7005C10.375 12.3671 10.125 12.0338 9.87504 11.5338H3.62504C2.12504 11.5338 0.958374 12.7838 0.958374 14.2005V40.8671C0.958374 42.3671 2.12504 43.5338 3.62504 43.5338H51.625C53.0417 43.5338 54.2917 42.3671 54.2917 40.8671V14.2005C54.2917 12.7838 53.0417 11.5338 51.625 11.5338ZM12.2917 36.2005H13.625C13.9584 36.2005 14.2917 35.9505 14.2917 35.5338V34.2005C16.2084 34.2005 17.7917 32.5338 17.7917 30.4505C17.7917 28.7838 16.7084 27.2838 15.2084 26.8671L11.4584 25.7005C10.9584 25.6171 10.7084 25.2005 10.7084 24.7005C10.7084 24.0338 11.125 23.5338 11.7084 23.5338H14.0417C14.375 23.6171 14.7917 23.7005 15.125 23.8671C15.2084 23.9505 15.2917 24.0338 15.4584 24.0338C15.625 24.0338 15.7917 23.9505 15.9584 23.7838L16.875 22.8671C17.0417 22.7838 17.125 22.6171 17.125 22.3671C17.125 22.2005 17.0417 22.0338 16.875 21.8671C16.125 21.3671 15.2084 20.9505 14.2917 20.9505V19.5338C14.2917 19.2005 13.9584 18.8671 13.625 18.8671H12.2917C11.875 18.8671 11.625 19.2005 11.625 19.5338V20.9505C9.62504 20.9505 8.04171 22.6171 8.04171 24.7005C8.04171 26.3671 9.12504 27.7838 10.625 28.2838L14.375 29.4505C14.875 29.5338 15.125 29.9505 15.125 30.4505C15.125 31.1171 14.7084 31.5338 14.125 31.5338H11.7917C11.4584 31.5338 11.0417 31.4505 10.7917 31.2838C10.625 31.2005 10.5417 31.1171 10.375 31.1171C10.2084 31.1171 10.0417 31.2005 9.87504 31.3671L8.95837 32.2838C8.79171 32.3671 8.70837 32.5338 8.70837 32.7838C8.70837 32.9505 8.79171 33.1171 8.95837 33.2838C9.70837 33.7838 10.625 34.2005 11.625 34.2005V35.5338C11.625 35.9505 11.875 36.2005 12.2917 36.2005Z" fill="#EE3124"/>
</svg>
