<svg width="49" height="49" viewBox="0 0 49 49" fill="none" xmlns="http://www.w3.org/2000/svg">
<path d="M47.9844 36.7629L36.3594 25.0442C34.8594 23.6379 32.9844 22.8879 31.0156 22.8879C29.6094 22.8879 28.1094 23.2629 26.8906 24.1067L18.9219 16.1379V9.20044L6.92188 0.200439L0.921875 6.20044L9.92188 18.2004H16.7656L24.7344 26.2629C22.8594 29.1692 23.1406 33.1067 25.7656 35.7317L37.3906 47.3567C37.9531 47.9192 38.7969 48.2942 39.5469 48.2942C40.2969 48.2942 41.0469 47.9192 41.6094 47.3567L47.9844 40.9817C49.2031 39.8567 49.2031 37.8879 47.9844 36.7629ZM15.9219 15.1067V15.2004H11.4219L4.85938 6.48169L7.20312 4.23169L15.9219 10.7004V15.1067ZM39.5469 45.2004L27.8281 33.5754C26.9844 32.7317 26.5156 31.6067 26.5156 30.3879C26.5156 29.1692 26.9844 28.0442 27.8281 27.2004C28.6719 26.3567 29.7969 25.8879 31.0156 25.8879C32.2344 25.8879 33.3594 26.3567 34.2031 27.2004L45.9219 38.9192L39.5469 45.2004ZM6.92188 40.7004C6.92188 41.5442 7.57812 42.2004 8.42188 42.2004C9.17188 42.2004 9.92188 41.5442 9.92188 40.7004C9.92188 39.9504 9.17188 39.2004 8.42188 39.2004C7.57812 39.2004 6.92188 39.9504 6.92188 40.7004ZM26.7969 6.48169C28.9531 4.41919 31.7656 3.20044 34.6719 3.20044C35.3281 3.20044 35.9844 3.29419 36.6406 3.38794L30.1719 9.95044L31.3906 17.7317L39.1719 18.9504L45.7344 12.4817C46.2969 16.0442 45.1719 19.7004 42.6406 22.3254C41.7969 23.1692 40.8594 23.8254 39.8281 24.2942L41.9844 26.5442C43.0156 25.9817 43.8594 25.2317 44.7031 24.3879C48.2656 20.8254 49.6719 15.8567 48.4531 10.9817C48.2656 10.0442 47.5156 9.38794 46.6719 9.10669C45.7344 8.91919 44.7969 9.10669 44.1406 9.76294L38.1406 15.7629L34.0156 15.1067L33.3594 10.9817L39.3594 4.98169C39.9219 4.32544 40.2031 3.38794 40.0156 2.45044C39.7344 1.60669 38.9844 0.856689 38.1406 0.669189C33.2656 -0.549561 28.2969 0.856689 24.7344 4.41919C23.5156 5.63794 22.5781 7.04419 21.9219 8.54419V14.9192L23.9844 16.9817C23.0469 13.1379 24.0781 9.20044 26.7969 6.48169ZM10.9531 44.0754C9.35938 45.5754 6.64062 45.5754 5.04688 44.0754C3.45312 42.3879 3.45312 39.7629 5.04688 38.1692L18.7344 24.4817L16.6719 22.4192L2.98438 36.1067C0.171875 38.8254 0.171875 43.4192 2.98438 46.1379C4.29688 47.5442 6.07812 48.2004 7.95312 48.2004C9.92188 48.2004 11.7031 47.5442 13.0156 46.1379L22.5781 36.5754C21.9219 35.7317 21.4531 34.7942 21.0781 33.8567L10.9531 44.0754Z" fill="#EE3124"/>
</svg>
