<svg version="1.2" xmlns="http://www.w3.org/2000/svg" viewBox="0 0 49 49" width="49" height="49">
	<style>
		.s0 { fill: #ffffff } 
	</style>
	<path class="s0" d="m48.13 24.2c-0.01-3.28-1.88-6.37-4.69-7.97 0.84-3.19 0-6.56-2.35-9-2.43-2.34-5.81-3.19-9-2.34-1.59-2.81-4.68-4.69-7.97-4.69-3.37 0-6.46 1.88-8.06 4.69-3.19-0.85-6.56 0-8.9 2.34-2.44 2.44-3.29 5.81-2.44 9-2.81 1.6-4.6 4.69-4.6 7.97 0 3.38 1.79 6.47 4.6 8.06-0.85 3.19 0 6.57 2.44 8.91 2.43 2.53 5.9 3.28 8.9 2.44 1.6 2.81 4.69 4.59 8.06 4.59 3.29 0 6.38-1.78 7.97-4.59 3.1 0.84 6.47 0.09 9-2.44 2.35-2.34 3.19-5.72 2.35-8.91 2.81-1.59 4.68-4.68 4.68-8.06zm-8.62 6.47c0.56 1.12 2.81 5.06-0.56 8.44-2.72 2.72-5.44 1.97-8.44 0.56-0.47 1.12-1.59 5.53-6.38 5.53-4.96 0-6.09-4.59-6.46-5.53-3 1.41-5.72 2.16-8.44-0.56-3.47-3.47-1.03-7.6-0.56-8.44-1.13-0.47-5.54-1.69-5.54-6.47 0-4.87 4.6-6 5.54-6.37-0.57-1.13-2.82-5.07 0.56-8.44 3.47-3.47 7.59-1.03 8.44-0.56 0.46-1.22 1.68-5.63 6.46-5.63 4.88 0 6 4.69 6.38 5.63 1.12-0.57 5.06-2.82 8.44 0.56 3.47 3.47 1.03 7.59 0.56 8.44 1.22 0.46 5.62 1.59 5.62 6.37 0 4.97-4.68 6.09-5.62 6.47zm-12.28-7.03l-5.53-1.6c-0.75-0.28-1.32-1.03-1.32-1.87 0-1.03 0.85-1.88 1.88-1.88h3.47c0.75 0 1.5 0.19 2.15 0.66 0.29 0.19 0.66 0.09 0.85-0.09l1.12-1.13c0.28-0.28 0.28-0.84-0.09-1.12-1.13-0.85-2.53-1.32-4.03-1.32h-0.1v-2.25c0-0.46-0.37-0.75-0.75-0.75h-1.5c-0.46 0-0.75 0.29-0.75 0.75v2.25h-0.37c-2.91 0-5.16 2.44-4.88 5.35 0.19 2.06 1.79 3.75 3.75 4.31l5.35 1.5c0.75 0.28 1.4 1.03 1.4 1.88 0 1.03-0.93 1.87-1.96 1.87h-3.47c-0.75 0-1.5-0.19-2.16-0.66-0.19-0.18-0.66-0.09-0.84 0.1l-1.13 1.12c-0.28 0.28-0.28 0.85 0.1 1.13 1.12 0.84 2.53 1.31 4.03 1.31h0.18v2.25c0 0.47 0.29 0.75 0.75 0.75h1.5c0.38 0 0.75-0.28 0.75-0.75v-2.25h0.1c2.15 0 4.12-1.22 4.87-3.28 0.94-2.72-0.75-5.53-3.37-6.28z"/>
</svg>