<svg width="49" height="37" viewBox="0 0 49 37" fill="none" xmlns="http://www.w3.org/2000/svg">
<path d="M11.651 17.7838C9.21346 17.7838 7.52596 19.3775 7.52596 21.5338C7.52596 23.7838 9.21346 25.2838 11.651 25.2838H12.5885C16.3385 25.2838 16.901 23.4088 16.901 22.2838C16.901 20.0338 13.901 17.7838 11.651 17.7838ZM12.5885 23.0338C12.3072 23.0338 11.9322 23.0338 11.651 23.0338C10.526 23.0338 9.77596 22.4713 9.77596 21.5338C9.77596 20.69 10.526 20.0338 11.651 20.0338C12.8697 20.0338 14.651 21.44 14.651 22.2838C14.651 23.0338 13.6197 23.0338 12.5885 23.0338ZM37.0572 17.7838C34.8072 17.7838 31.901 20.0338 31.901 22.2838C31.901 23.4088 32.3697 25.3775 36.1197 25.3775L37.0572 25.2838C39.4947 25.2838 41.276 23.7838 41.276 21.5338C41.1822 19.3775 39.4947 17.7838 37.0572 17.7838ZM37.0572 23.0338C36.776 23.0338 36.401 23.0338 36.1197 23.0338C35.0885 23.0338 34.0572 23.0338 34.0572 22.2838C34.0572 21.44 35.8385 20.0338 37.0572 20.0338C38.1822 20.0338 38.9322 20.69 38.9322 21.5338C38.9322 22.4713 38.1822 23.0338 37.0572 23.0338ZM47.7447 9.815C47.0885 8.78375 45.8697 8.03375 44.5572 8.03375H39.9635L39.2135 5.78375C38.1822 2.69 35.276 0.533752 32.0885 0.533752H16.6197C13.4322 0.533752 10.526 2.69 9.49471 5.78375L8.74471 8.03375H4.15096C2.83846 8.03375 1.61971 8.78375 0.963457 9.815C0.213457 10.94 0.213457 12.3463 0.775957 13.4713L1.33846 14.5963C1.71346 15.3463 2.18221 15.9088 2.93221 16.3775C2.27596 17.4088 1.90096 18.7213 1.90096 20.0338V32.0338C1.90096 34.565 3.86971 36.5338 6.40096 36.5338H7.90096C10.3385 36.5338 12.401 34.565 12.401 32.0338V30.5338H36.401V32.0338C36.401 34.565 38.3697 36.5338 40.901 36.5338H42.401C44.8385 36.5338 46.901 34.565 46.901 32.0338V20.0338C46.901 18.7213 46.4322 17.4088 45.776 16.3775C46.526 15.9088 47.0885 15.3463 47.3697 14.5963L47.9322 13.4713C48.4947 12.3463 48.4947 10.94 47.7447 9.815ZM12.401 6.72125C12.9635 4.84625 14.7447 3.53375 16.6197 3.53375H32.0885C34.0572 3.53375 35.7447 4.84625 36.3072 6.72125L38.276 12.5338H10.4322L12.401 6.72125ZM3.96346 13.2838L3.40096 12.1588C3.30721 11.7838 3.40096 11.5025 3.49471 11.4088C3.58846 11.315 3.77596 11.0338 4.15096 11.0338H7.80721L7.15096 12.9088C6.40096 13.19 5.65096 13.565 4.99471 14.0338C4.61971 13.94 4.15096 13.6588 3.96346 13.2838ZM9.40096 32.0338C9.40096 32.8775 8.65096 33.5338 7.90096 33.5338H6.40096C5.55721 33.5338 4.90096 32.8775 4.90096 32.0338V30.5338H9.40096V32.0338ZM43.8072 32.0338C43.8072 32.8775 43.151 33.5338 42.3072 33.5338H40.8072C40.0572 33.5338 39.3072 32.8775 39.3072 32.0338V30.5338H43.8072V32.0338ZM43.8072 24.5338V27.5338H4.90096V20.0338C4.90096 17.5963 6.86971 15.5338 9.40096 15.5338H39.3072C41.8385 15.5338 43.8072 17.5963 43.8072 20.0338V24.5338ZM45.3072 12.1588L44.7447 13.2838C44.5572 13.6588 44.0885 13.94 43.7135 14.0338C43.0572 13.565 42.3072 13.19 41.5572 12.9088L40.901 11.0338H44.5572C44.9322 11.0338 45.1197 11.315 45.2135 11.4088C45.3072 11.5025 45.401 11.7838 45.3072 12.1588Z" fill="#EE3124"/>
</svg>
