<svg version="1.2" xmlns="http://www.w3.org/2000/svg" viewBox="0 0 61 49" width="61" height="49">
	<style>
		.s0 { fill: #ffffff } 
	</style>
	<path class="s0" d="m15.28 8.12c0.37 0.57 0.93 0.94 1.5 1.03 0.65 0 1.31-0.09 1.78-0.56l4.87-4.03c0.66-0.47 0.75-1.41 0.19-2.06-0.47-0.66-1.41-0.75-2.06-0.19l-4.22 3.47-3.09-4.59c-0.47-0.75-1.41-1.13-2.35-0.94-0.94 0.28-1.59 1.03-1.69 1.97l-0.56 5.43-5.34-1.03c-0.94-0.18-1.88 0.19-2.35 1.03-0.56 0.85-0.46 1.79 0.19 2.54l3.47 4.21-4.59 3.1c-0.75 0.47-1.13 1.4-0.94 2.34 0.28 0.94 1.03 1.6 1.97 1.69l5.44 0.56-1.04 5.35c-0.18 0.84 0.38 1.59 1.13 1.78q0.14 0 0.28 0c0.75 0 1.41-0.47 1.5-1.13l1.22-6.28c0.19-0.56 0-1.22-0.38-1.78-0.37-0.47-0.93-0.75-1.59-0.84l-4.12-0.38 3.46-2.34c0.57-0.38 0.85-0.94 0.94-1.5 0.1-0.1 0.1-0.28 0.1-0.38q0-0.84-0.57-1.4l-2.62-3.19 4.12 0.75c0.57 0.19 1.22 0 1.78-0.38 0.47-0.37 0.75-0.93 0.85-1.59l0.37-4.13zm41.25 15.47l-0.47-7.59c-0.09-3.19-2.34-6-5.53-6.84l-14.9-3.94c-3.1-0.85-6.38 0.37-8.16 3.09l-4.12 6.38c-3.29 0.09-6.19 2.25-7.04 5.53l-3.46 13.03c-0.66 2.34 0.75 4.87 3.18 5.44l1.41 0.47c2.44 0.56 4.87-0.85 5.53-3.19l0.75-2.91 23.25 6.19-0.84 2.91c-0.66 2.34 0.84 4.87 3.18 5.53l1.5 0.37c2.35 0.66 4.88-0.84 5.54-3.19l3.46-13.03c0.85-3.28-0.56-6.56-3.28-8.25zm0.38 7.5l-1.22 4.32-0.75 2.9-4.31-1.22-2.91-0.75-30.47-8.15 1.97-7.22c0.66-2.44 3.09-3.85 5.53-3.19l28.97 7.78c2.34 0.66 3.84 3.1 3.19 5.53zm-30.47-10.5c-2.34-0.65-4.5 0.38-5.06 2.53-0.57 2.07 0.75 4.04 3.09 4.69l0.94 0.19c3.56 1.03 4.5-0.66 4.87-1.78 0.57-2.25-1.68-5.06-3.84-5.63zm3.47-10.59c1.12-1.69 3.09-2.44 4.97-1.97l14.9 4.03c1.88 0.47 3.19 2.16 3.28 4.13l0.38 6.18-26.91-7.21zm-9.84 25.12c-0.19 0.84-1.03 1.31-1.78 1.13l-1.5-0.38c-0.75-0.28-1.31-1.12-1.03-1.87l0.75-2.91 4.31 1.12zm33.37 9c-0.28 0.75-1.03 1.22-1.87 1.04l-1.41-0.38c-0.84-0.19-1.31-1.03-1.12-1.87l0.84-2.91 4.31 1.22zm-27.46-18.28c-0.38-0.1-0.66-0.19-0.94-0.19-1.13-0.38-1.69-1.13-1.5-1.97 0.28-0.84 1.12-1.31 2.25-0.94 1.12 0.28 2.53 2.07 2.25 2.91-0.19 0.66-1.13 0.47-2.06 0.19zm24.93 1.31c-2.25-0.66-5.62 0.75-6.18 3-0.29 1.03-0.29 3 3.28 3.94l0.93 0.28c2.35 0.56 4.5-0.47 5.07-2.53 0.56-2.16-0.75-4.13-3.1-4.69zm0.94 4.03c-0.28 0.94-1.22 1.31-2.34 1.03-0.28-0.09-0.57-0.19-0.94-0.28-0.94-0.28-1.88-0.56-1.69-1.22 0.28-0.94 2.25-1.78 3.47-1.4 1.13 0.28 1.69 1.03 1.5 1.87z"/>
</svg>