<svg version="1.2" xmlns="http://www.w3.org/2000/svg" viewBox="0 0 61 49" width="61" height="49">
	<style>
		.s0 { fill: #ffffff } 
	</style>
	<path class="s0" d="m60.36 15.13l-28.87-14.72q-0.7-0.42-1.41 0l-28.87 15.1c-0.38 0.18-0.56 0.65-0.28 0.93l0.65 1.32c0.19 0.37 0.66 0.56 1.03 0.28l28.22-14.63 28.13 14.35c0.37 0.28 0.84 0.09 1.03-0.29l0.66-1.31c0.28-0.28 0.09-0.75-0.29-1.03zm-13.31 9.56l-1.4-4.31c-1.04-3.09-3.94-5.16-7.13-5.16h-15.47c-3.19 0-6.09 2.07-7.12 5.16l-1.41 4.31c-2.72 1.13-4.69 3.85-4.69 6.94v12c0 2.53 1.97 4.5 4.5 4.5h1.5c2.44 0 4.5-1.97 4.5-4.5v-1.5h21v1.5c0 2.53 1.97 4.5 4.5 4.5h1.5c2.44 0 4.5-1.97 4.5-4.5v-12c0-3.09-2.06-5.81-4.78-6.94zm-28.22-3.37c0.57-1.88 2.25-3.1 4.22-3.1h15.47c1.97 0 3.66 1.22 4.22 3.1l0.94 2.81h-25.78zm-1.5 22.31c0 0.85-0.75 1.5-1.5 1.5h-1.5c-0.85 0-1.5-0.65-1.5-1.5v-1.5h4.5zm31.5 0c0 0.85-0.75 1.5-1.5 1.5h-1.5c-0.85 0-1.5-0.65-1.5-1.5v-1.5h4.5zm0-7.5v3h-36v-7.5c0-2.43 1.96-4.5 4.5-4.5h27c2.43 0 4.5 2.07 4.5 4.5zm-6.85-6.65c-2.25 0-5.15 2.15-5.15 4.4 0 1.13 0.46 3.1 4.21 3.1l0.94-0.1c2.44 0 4.22-1.5 4.22-3.75 0-2.15-1.78-3.65-4.22-3.65zm0 5.15c-0.28 0-0.65 0.1-0.94 0.1-1.03 0-1.96-0.1-1.96-0.85 0-0.84 1.68-2.15 2.9-2.15 1.13 0 1.97 0.56 1.97 1.4 0 0.94-0.84 1.5-1.97 1.5zm-22.4-5.15c-2.44 0-4.13 1.5-4.13 3.65 0 2.25 1.69 3.75 4.13 3.75l0.93 0.1c3.75 0 4.32-1.97 4.32-3.1 0-2.25-3-4.4-5.25-4.4zm0.93 5.25c-0.28 0-0.65-0.1-0.93-0.1-1.13 0-1.88-0.56-1.88-1.5 0-0.84 0.75-1.4 1.88-1.4 1.21 0 3 1.31 3 2.15 0 0.75-1.04 0.85-2.07 0.85z"/>
</svg>