<svg width="49" height="49" viewBox="0 0 49 49" fill="none" xmlns="http://www.w3.org/2000/svg">
<path d="M48.4375 5.26294C47.3125 2.26294 44.5 0.200439 41.3125 0.200439C38.875 0.200439 36.7188 1.41919 35.4062 3.20044H13.75C12.4375 1.41919 10.2812 0.200439 7.84375 0.200439C4.65625 0.200439 1.84375 2.26294 0.71875 5.26294C0.625 5.54419 0.625 5.91919 0.625 6.20044C0.625 6.76294 0.71875 7.32544 1 7.70044C0.71875 8.16919 0.625 8.73169 0.625 9.20044C0.625 9.57544 0.625 9.95044 0.71875 10.2317C1.84375 13.2317 4.65625 15.2004 7.84375 15.2004C10.2812 15.2004 12.4375 14.0754 13.75 12.2942H35.4062C36.7188 14.0754 38.875 15.2004 41.3125 15.2004C44.5 15.2004 47.3125 13.2317 48.4375 10.2317C48.5312 9.95044 48.5312 9.57544 48.5312 9.29419C48.5312 8.73169 48.4375 8.16919 48.1562 7.70044C48.625 6.95044 48.7188 6.10669 48.4375 5.26294ZM41.3125 9.20044H45.625C44.9688 10.9817 43.2812 12.2004 41.3125 12.2004C39.4375 12.2004 37.75 10.9817 37.0938 9.20044H12.0625C11.4062 10.9817 9.71875 12.2004 7.84375 12.2004C5.875 12.2004 4.1875 10.9817 3.625 9.20044H7.84375L9.34375 7.70044L7.84375 6.20044H3.625C4.1875 4.51294 5.875 3.20044 7.84375 3.20044C9.71875 3.20044 11.4062 4.51294 12.0625 6.29419H37.0938C37.75 4.51294 39.4375 3.20044 41.3125 3.20044C43.2812 3.20044 44.9688 4.51294 45.625 6.20044H41.3125L39.8125 7.70044L41.3125 9.20044ZM40.8438 24.7629L39.4375 20.4504C38.4062 17.3567 35.5 15.2942 32.3125 15.2942H16.8438C13.6562 15.2942 10.75 17.3567 9.71875 20.4504L8.3125 24.7629C5.59375 25.8879 3.625 28.6067 3.625 31.7004V43.7004C3.625 46.2317 5.59375 48.2004 8.125 48.2004H9.625C12.0625 48.2004 14.125 46.2317 14.125 43.7004V42.2004H35.125V43.7004C35.125 46.2317 37.0938 48.2004 39.625 48.2004H41.125C43.5625 48.2004 45.625 46.2317 45.625 43.7004V31.7004C45.625 28.6067 43.5625 25.8879 40.8438 24.7629ZM12.625 21.3879C13.1875 19.5129 14.875 18.2942 16.8438 18.2942H32.3125C34.2812 18.2942 35.9688 19.5129 36.5312 21.3879L37.4688 24.2004H11.6875L12.625 21.3879ZM11.125 43.7004C11.125 44.5442 10.375 45.2004 9.625 45.2004H8.125C7.28125 45.2004 6.625 44.5442 6.625 43.7004V42.2004H11.125V43.7004ZM42.625 43.7004C42.625 44.5442 41.875 45.2004 41.125 45.2004H39.625C38.7812 45.2004 38.125 44.5442 38.125 43.7004V42.2004H42.625V43.7004ZM42.625 36.2004V39.2004H6.625V31.7004C6.625 29.2629 8.59375 27.2004 11.125 27.2004H38.125C40.5625 27.2004 42.625 29.2629 42.625 31.7004V36.2004ZM35.7812 29.5442C33.5312 29.5442 30.625 31.7004 30.625 33.9504C30.625 35.0754 31.0938 37.0442 34.8438 37.0442L35.7812 36.9504C38.2188 36.9504 40 35.4504 40 33.2004C40 31.0442 38.2188 29.5442 35.7812 29.5442ZM35.7812 34.7004C35.5 34.7004 35.125 34.7942 34.8438 34.7942C33.8125 34.7942 32.875 34.7004 32.875 33.9504C32.875 33.1067 34.5625 31.7942 35.7812 31.7942C36.9062 31.7942 37.75 32.3567 37.75 33.2004C37.75 34.1379 36.9062 34.7004 35.7812 34.7004ZM13.375 29.5442C10.9375 29.5442 9.25 31.0442 9.25 33.2004C9.25 35.4504 10.9375 36.9504 13.375 36.9504L14.3125 37.0442C18.0625 37.0442 18.625 35.0754 18.625 33.9504C18.625 31.7004 15.625 29.5442 13.375 29.5442ZM14.3125 34.7942C14.0312 34.7942 13.6562 34.7004 13.375 34.7004C12.25 34.7004 11.5 34.1379 11.5 33.2004C11.5 32.3567 12.25 31.7942 13.375 31.7942C14.5938 31.7942 16.375 33.1067 16.375 33.9504C16.375 34.7004 15.3438 34.7942 14.3125 34.7942Z" fill="#EE3124"/>
</svg>
