<svg version="1.2" xmlns="http://www.w3.org/2000/svg" viewBox="0 0 57 47" width="57" height="47">
	<style>
		.s0 { fill: #ffffff } 
	</style>
	<path class="s0" d="m21.3 23.53h-17.07c-0.7 0-1.22-0.53-1.22-1.24v-4.87c0-2.03 1.66-3.71 3.67-3.8h23.37c0 0 0 0.09 0.08 0.09 0 0 0.09-0.09 0.18-0.09h5.07c-0.7-0.98-1.66-1.69-2.71-2.22l-1.4-6.11c-0.52-2.47-2.8-4.33-5.42-4.33v-0.09h-15.14-0.09c-2.62 0-4.81 1.95-5.42 4.42l-1.4 6.29c-2.1 1.06-3.59 3.28-3.59 5.84v4.87c0 1.86 1.14 3.37 2.8 3.9v3.01c0 0.8 0.61 1.42 1.4 1.42h1.4c0.7 0 1.4-0.62 1.4-1.42v-2.83h12.51c0.35-0.36 0.79-0.71 1.23-1.07zm-13.39-17.62c0.35-1.23 1.4-2.12 2.8-2.21h15.14c1.31 0.09 2.45 0.98 2.71 2.21l1.14 4.87h-22.84zm-2.1 12.31c0 1.06 0.7 1.77 1.75 1.77 0.96 0 1.75-0.71 1.75-1.77 0-0.97-0.79-1.77-1.75-1.77-1.05 0-1.75 0.8-1.75 1.77zm46.46 8.77l-1.4-6.11c-0.52-2.48-2.8-4.34-5.42-4.34v-0.09h-15.14-0.09c-2.62 0-4.81 1.95-5.42 4.43l-1.4 6.28c-2.1 1.07-3.59 3.28-3.59 5.85v4.87c0 1.86 1.14 3.36 2.8 3.89v3.01c0 0.8 0.61 1.42 1.4 1.42h1.4c0.7 0 1.4-0.62 1.4-1.42v-2.83h22.4v2.83c0 0.8 0.61 1.42 1.4 1.42h1.4c0.7 0 1.4-0.62 1.4-1.42v-3.01c1.57-0.53 2.71-2.03 2.8-3.89v-4.87c-0.09-2.66-1.66-5.05-3.94-6.02zm1.14 10.89c-0.09 0.71-0.61 1.24-1.31 1.24h-28.27c-0.7 0-1.22-0.53-1.22-1.24v-4.87c0-2.04 1.66-3.72 3.67-3.81h23.37c2.01 0.09 3.67 1.77 3.76 3.81zm-26.25-5.85c-1.05 0-1.75 0.8-1.75 1.78 0 1.06 0.7 1.77 1.75 1.77 0.96 0 1.75-0.71 1.75-1.77 0-0.98-0.79-1.78-1.75-1.78zm0.35-10.53c0.35-1.24 1.4-2.13 2.8-2.22h15.14c1.31 0.09 2.45 0.98 2.71 2.22l1.14 4.87h-22.84zm21.35 10.53c-1.05 0-1.75 0.8-1.75 1.78 0 1.06 0.7 1.77 1.75 1.77 0.96 0 1.75-0.71 1.75-1.77 0-0.98-0.79-1.78-1.75-1.78z"/>
</svg>