<svg width="61" height="49" viewBox="0 0 61 49" fill="none" xmlns="http://www.w3.org/2000/svg">
<path d="M60.3646 15.1301L31.4896 0.411377C31.0208 0.130127 30.5521 0.130127 30.0833 0.411377L1.20832 15.5051C0.833323 15.6926 0.645823 16.1614 0.927073 16.4426L1.58332 17.7551C1.77082 18.1301 2.23957 18.3176 2.61457 18.0364L30.8333 3.41138L58.9583 17.7551C59.3333 18.0364 59.8021 17.8489 59.9896 17.4739L60.6458 16.1614C60.9271 15.8801 60.7396 15.4114 60.3646 15.1301ZM47.0521 24.6926L45.6458 20.3801C44.6146 17.2864 41.7083 15.2239 38.5208 15.2239H23.0521C19.8646 15.2239 16.9583 17.2864 15.9271 20.3801L14.5208 24.6926C11.8021 25.8176 9.83332 28.5364 9.83332 31.6301V43.6301C9.83332 46.1614 11.8021 48.1301 14.3333 48.1301H15.8333C18.2708 48.1301 20.3333 46.1614 20.3333 43.6301V42.1301H41.3333V43.6301C41.3333 46.1614 43.3021 48.1301 45.8333 48.1301H47.3333C49.7708 48.1301 51.8333 46.1614 51.8333 43.6301V31.6301C51.8333 28.5364 49.7708 25.8176 47.0521 24.6926ZM18.8333 21.3176C19.3958 19.4426 21.0833 18.2239 23.0521 18.2239H38.5208C40.4896 18.2239 42.1771 19.4426 42.7396 21.3176L43.6771 24.1301H17.8958L18.8333 21.3176ZM17.3333 43.6301C17.3333 44.4739 16.5833 45.1301 15.8333 45.1301H14.3333C13.4896 45.1301 12.8333 44.4739 12.8333 43.6301V42.1301H17.3333V43.6301ZM48.8333 43.6301C48.8333 44.4739 48.0833 45.1301 47.3333 45.1301H45.8333C44.9896 45.1301 44.3333 44.4739 44.3333 43.6301V42.1301H48.8333V43.6301ZM48.8333 36.1301V39.1301H12.8333V31.6301C12.8333 29.1926 14.8021 27.1301 17.3333 27.1301H44.3333C46.7708 27.1301 48.8333 29.1926 48.8333 31.6301V36.1301ZM41.9896 29.4739C39.7396 29.4739 36.8333 31.6301 36.8333 33.8801C36.8333 35.0051 37.3021 36.9739 41.0521 36.9739L41.9896 36.8801C44.4271 36.8801 46.2083 35.3801 46.2083 33.1301C46.2083 30.9739 44.4271 29.4739 41.9896 29.4739ZM41.9896 34.6301C41.7083 34.6301 41.3333 34.7239 41.0521 34.7239C40.0208 34.7239 39.0833 34.6301 39.0833 33.8801C39.0833 33.0364 40.7708 31.7239 41.9896 31.7239C43.1146 31.7239 43.9583 32.2864 43.9583 33.1301C43.9583 34.0676 43.1146 34.6301 41.9896 34.6301ZM19.5833 29.4739C17.1458 29.4739 15.4583 30.9739 15.4583 33.1301C15.4583 35.3801 17.1458 36.8801 19.5833 36.8801L20.5208 36.9739C24.2708 36.9739 24.8333 35.0051 24.8333 33.8801C24.8333 31.6301 21.8333 29.4739 19.5833 29.4739ZM20.5208 34.7239C20.2396 34.7239 19.8646 34.6301 19.5833 34.6301C18.4583 34.6301 17.7083 34.0676 17.7083 33.1301C17.7083 32.2864 18.4583 31.7239 19.5833 31.7239C20.8021 31.7239 22.5833 33.0364 22.5833 33.8801C22.5833 34.6301 21.5521 34.7239 20.5208 34.7239Z" fill="#EE3124"/>
</svg>
