<svg version="1.2" xmlns="http://www.w3.org/2000/svg" viewBox="0 0 49 49" width="49" height="49">
	<style>
		.s0 { fill: #ffffff } 
	</style>
	<path class="s0" d="m48.44 5.26c-1.13-3-3.94-5.06-7.13-5.06-2.43 0-4.59 1.22-5.9 3h-21.66c-1.31-1.78-3.47-3-5.91-3-3.18 0-6 2.06-7.12 5.06-0.09 0.28-0.09 0.66-0.09 0.94 0 0.56 0.09 1.13 0.37 1.5-0.28 0.47-0.37 1.03-0.37 1.5 0 0.38 0 0.75 0.09 1.03 1.12 3 3.94 4.97 7.12 4.97 2.44 0 4.6-1.12 5.91-2.91h21.66c1.31 1.79 3.47 2.91 5.9 2.91 3.19 0 6-1.97 7.13-4.97 0.09-0.28 0.09-0.65 0.09-0.94 0-0.56-0.09-1.12-0.37-1.59 0.47-0.75 0.56-1.59 0.28-2.44zm-7.13 3.94h4.32c-0.66 1.78-2.35 3-4.32 3-1.87 0-3.56-1.22-4.22-3h-25.03c-0.65 1.78-2.34 3-4.22 3-1.96 0-3.65-1.22-4.21-3h4.21l1.5-1.5-1.5-1.5h-4.21c0.56-1.69 2.25-3 4.21-3 1.88 0 3.57 1.31 4.22 3.09h25.03c0.66-1.78 2.35-3.09 4.22-3.09 1.97 0 3.66 1.31 4.32 3h-4.32l-1.5 1.5zm-0.47 15.56l-1.4-4.31c-1.03-3.09-3.94-5.16-7.13-5.16h-15.47c-3.18 0-6.09 2.07-7.12 5.16l-1.41 4.31c-2.72 1.13-4.68 3.85-4.68 6.94v12c0 2.53 1.96 4.5 4.5 4.5h1.5c2.43 0 4.5-1.97 4.5-4.5v-1.5h21v1.5c0 2.53 1.96 4.5 4.5 4.5h1.5c2.43 0 4.5-1.97 4.5-4.5v-12c0-3.09-2.07-5.81-4.79-6.94zm-28.21-3.37c0.56-1.88 2.25-3.1 4.21-3.1h15.47c1.97 0 3.66 1.22 4.22 3.1l0.94 2.81h-25.78zm-1.5 22.31c0 0.85-0.75 1.5-1.5 1.5h-1.5c-0.85 0-1.5-0.65-1.5-1.5v-1.5h4.5zm31.5 0c0 0.85-0.75 1.5-1.5 1.5h-1.5c-0.85 0-1.5-0.65-1.5-1.5v-1.5h4.5zm0-7.5v3h-36v-7.5c0-2.43 1.97-4.5 4.5-4.5h27c2.44 0 4.5 2.07 4.5 4.5zm-6.85-6.65c-2.25 0-5.15 2.15-5.15 4.4 0 1.13 0.47 3.1 4.22 3.1l0.93-0.1c2.44 0 4.22-1.5 4.22-3.75 0-2.15-1.78-3.65-4.22-3.65zm0 5.15c-0.28 0-0.65 0.1-0.93 0.1-1.03 0-1.97-0.1-1.97-0.85 0-0.84 1.69-2.15 2.9-2.15 1.13 0 1.97 0.56 1.97 1.4 0 0.94-0.84 1.5-1.97 1.5zm-22.4-5.15c-2.44 0-4.13 1.5-4.13 3.65 0 2.25 1.69 3.75 4.13 3.75l0.94 0.1c3.75 0 4.31-1.97 4.31-3.1 0-2.25-3-4.4-5.25-4.4zm0.94 5.25c-0.29 0-0.66-0.1-0.94-0.1-1.13 0-1.88-0.56-1.88-1.5 0-0.84 0.75-1.4 1.88-1.4 1.22 0 3 1.31 3 2.15 0 0.75-1.03 0.85-2.06 0.85z"/>
</svg>