<svg version="1.2" xmlns="http://www.w3.org/2000/svg" viewBox="0 0 55 44" width="55" height="44">
	<style>
		.s0 { fill: #ffffff } 
	</style>
	<path class="s0" d="m36.38 34.78c0.49 0.5 1.16 0.75 1.91 0.75h5.33c1.42 0 2.67-1.16 2.67-2.66v-5.34c0-0.66-0.33-1.33-0.83-1.83l-24-23.75c-0.59-0.67-1.5-1.08-2.42-1.08-0.92 0-1.83 0.41-2.42 1.08l-4 4c-0.66 0.58-1.08 1.5-1.08 2.42h0.08c0 1 0.34 1.83 1 2.41zm-11.33-25.58l18.58 18.33v5.34h-5.33l-18.33-18.5zm-10.58-1.34l4.08-4.08c0.08-0.08 0.33-0.25 0.5-0.25 0.25 0 0.42 0.17 0.58 0.25l3.67 3.75-5.08 5.08-3.75-3.66c-0.09-0.17-0.17-0.34-0.17-0.59 0-0.16 0.08-0.41 0.17-0.5zm37.16 3.67h-16.58l2.67 2.67h13.91v26.66h-48v-26.66h8.67l-1.5-1.5c-0.42-0.34-0.67-0.67-0.92-1.17h-6.25c-1.5 0-2.66 1.25-2.66 2.67v26.66c0 1.5 1.16 2.67 2.66 2.67h48c1.42 0 2.67-1.17 2.67-2.67v-26.66c0-1.42-1.25-2.67-2.67-2.67zm-31.33 16h5.17l-2.67-2.67h-2.5c-0.42 0-0.67 0.34-0.67 0.67v1.33c0 0.42 0.25 0.67 0.67 0.67zm-0.67 7.33c0 0.42 0.25 0.67 0.67 0.67h13.08l-2.66-2.67h-10.42c-0.42 0-0.67 0.34-0.67 0.67zm-7.33 1.33h1.33c0.34 0 0.67-0.25 0.67-0.66v-1.34c1.92 0 3.5-1.66 3.5-3.75 0-1.66-1.08-3.16-2.58-3.58l-3.75-1.17c-0.5-0.08-0.75-0.5-0.75-1 0-0.66 0.41-1.16 1-1.16h2.33c0.33 0.08 0.75 0.16 1.08 0.33 0.09 0.08 0.17 0.17 0.34 0.17q0.25 0 0.5-0.25l0.91-0.92q0.25-0.12 0.25-0.5 0-0.25-0.25-0.5c-0.75-0.5-1.66-0.92-2.58-0.92v-1.41c0-0.34-0.33-0.67-0.67-0.67h-1.33c-0.42 0-0.67 0.33-0.67 0.67v1.41c-2 0-3.58 1.67-3.58 3.75 0 1.67 1.08 3.09 2.58 3.59l3.75 1.16c0.5 0.09 0.75 0.5 0.75 1 0 0.67-0.41 1.09-1 1.09h-2.33c-0.33 0-0.75-0.09-1-0.25-0.17-0.09-0.25-0.17-0.42-0.17q-0.25 0-0.5 0.25l-0.91 0.92q-0.25 0.12-0.25 0.5 0 0.25 0.25 0.5c0.75 0.5 1.66 0.91 2.66 0.91v1.34c0 0.41 0.25 0.66 0.67 0.66z"/>
</svg>