<svg version="1.2" xmlns="http://www.w3.org/2000/svg" viewBox="0 0 49 49" width="49" height="49">
	<style>
		.s0 { fill: #ffffff } 
	</style>
	<path class="s0" d="m47.98 36.76l-11.62-11.72c-1.5-1.4-3.38-2.15-5.34-2.15-1.41 0-2.91 0.37-4.13 1.22l-7.97-7.97v-6.94l-12-9-6 6 9 12h6.85l7.96 8.06c-1.87 2.91-1.59 6.85 1.04 9.47l11.62 11.63c0.56 0.56 1.41 0.93 2.16 0.93 0.75 0 1.5-0.37 2.06-0.93l6.37-6.38c1.22-1.12 1.22-3.09 0-4.22zm-32.06-21.65v0.09h-4.5l-6.56-8.72 2.34-2.25 8.72 6.47zm23.63 30.09l-11.72-11.62c-0.85-0.84-1.31-1.97-1.31-3.19 0-1.22 0.46-2.34 1.31-3.19 0.84-0.84 1.97-1.31 3.19-1.31 1.21 0 2.34 0.47 3.18 1.31l11.72 11.72zm-28.59-1.12c-1.6 1.5-4.31 1.5-5.91 0-1.59-1.69-1.59-4.31 0-5.91l13.69-13.69-2.06-2.06-13.69 13.69c-2.81 2.72-2.81 7.31 0 10.03 1.31 1.41 3.09 2.06 4.97 2.06 1.97 0 3.75-0.65 5.06-2.06l9.56-9.56c-0.65-0.85-1.12-1.78-1.5-2.72zm15.85-37.59c2.15-2.07 4.97-3.29 7.87-3.29 0.66 0 1.31 0.1 1.97 0.19l-6.47 6.56 1.22 7.79 7.78 1.21 6.56-6.46c0.57 3.56-0.56 7.21-3.09 9.84q-1.26 1.26-2.81 1.97l2.15 2.25c1.04-0.56 1.88-1.31 2.72-2.16 3.57-3.56 4.97-8.53 3.75-13.4-0.18-0.94-0.93-1.6-1.78-1.88-0.94-0.19-1.87 0-2.53 0.66l-6 6-4.12-0.66-0.66-4.12 6-6c0.56-0.66 0.84-1.6 0.66-2.54-0.29-0.84-1.04-1.59-1.88-1.78-4.87-1.22-9.84 0.19-13.41 3.75-1.21 1.22-2.15 2.63-2.81 4.13v6.37l2.06 2.07c-0.93-3.85 0.1-7.79 2.82-10.5zm-19.88 34.21c0 0.85 0.66 1.5 1.5 1.5 0.75 0 1.5-0.65 1.5-1.5 0-0.75-0.75-1.5-1.5-1.5-0.84 0-1.5 0.75-1.5 1.5z"/>
</svg>