<svg width="21" height="25" viewBox="0 0 21 25" fill="none" xmlns="http://www.w3.org/2000/svg">
<path d="M7.08199 17.733L6.71741 19.875C6.67183 20.3307 6.85413 20.832 7.26428 21.1054C7.49215 21.2877 7.72001 21.3789 7.99345 21.3789C8.17574 21.3789 8.4036 21.2877 8.5859 21.1966L10.5 20.194L12.3684 21.1966C12.8242 21.4244 13.3255 21.3789 13.7356 21.1054C14.1002 20.832 14.3281 20.3307 14.2369 19.875L13.8724 17.733L15.3763 16.2747C15.7408 15.9101 15.8776 15.4088 15.6953 14.9531C15.5586 14.4974 15.1484 14.1783 14.6927 14.0872L12.5507 13.7682L11.6393 11.8541C11.4114 11.3984 10.9557 11.125 10.5 11.125C9.99866 11.125 9.54293 11.3984 9.36064 11.8541L8.4036 13.7682L6.26168 14.0872C5.80595 14.1328 5.39579 14.4974 5.25907 14.9531C5.12236 15.4088 5.2135 15.9101 5.57808 16.2747L7.08199 17.733ZM9.36064 15.0898L10.5 12.8112L11.5937 15.0898L14.1002 15.4544L12.2773 17.2317L12.733 19.7382L10.5 18.5533L8.22131 19.7382L8.67704 17.2317L6.85413 15.4544L9.36064 15.0898ZM18.5208 3.83329H16.3333V1.28121C16.3333 1.09892 16.151 0.916626 15.9687 0.916626H15.2395C15.0117 0.916626 14.875 1.09892 14.875 1.28121V3.83329H6.12496V1.28121C6.12496 1.09892 5.94267 0.916626 5.76038 0.916626H5.03121C4.80334 0.916626 4.66663 1.09892 4.66663 1.28121V3.83329H2.47913C1.24866 3.83329 0.291626 4.8359 0.291626 6.02079V22.0625C0.291626 23.2929 1.24866 24.25 2.47913 24.25H18.5208C19.7057 24.25 20.7083 23.2929 20.7083 22.0625V6.02079C20.7083 4.8359 19.7057 3.83329 18.5208 3.83329ZM19.25 22.0625C19.25 22.4726 18.8854 22.7916 18.5208 22.7916H2.47913C2.06897 22.7916 1.74996 22.4726 1.74996 22.0625V9.66663H19.25V22.0625ZM19.25 8.20829H1.74996V6.02079C1.74996 5.65621 2.06897 5.29163 2.47913 5.29163H18.5208C18.8854 5.29163 19.25 5.65621 19.25 6.02079V8.20829Z" fill="url(#paint0_linear_7168_13798)"/>
<defs>
<linearGradient id="paint0_linear_7168_13798" x1="-15.136" y1="-40.2442" x2="33.1127" y2="-27.1117" gradientUnits="userSpaceOnUse">
<stop offset="0.715083" stop-color="#686869"/>
<stop offset="1"/>
</linearGradient>
</defs>
</svg>
